<svg width="55" height="45" viewBox="0 0 55 45" fill="none" xmlns="http://www.w3.org/2000/svg">
<path d="M14.7978 31.1538H12.8304V33.1694H14.7978V31.1538Z" fill="#242D3C"/>
<path d="M10.8632 31.1538H8.89581V33.1694H10.8632V31.1538Z" fill="#242D3C"/>
<path d="M6.92846 31.1538H4.96112V33.1694H6.92846V31.1538Z" fill="#242D3C"/>
<path d="M50.0389 31.1538H48.0715V33.1694H50.0389V31.1538Z" fill="#242D3C"/>
<path d="M46.1042 31.1538H44.1368V33.1694H46.1042V31.1538Z" fill="#242D3C"/>
<path d="M42.1695 31.1538H40.2021V33.1694H42.1695V31.1538Z" fill="#242D3C"/>
<path d="M31.4347 9.59595H29.4673V39.9611H31.4347V9.59595Z" fill="#242D3C"/>
<path d="M25.5326 9.59595H23.5653V39.9611H25.5326V9.59595Z" fill="#242D3C"/>
<path d="M50.0389 4.81982H32.2045V6.8354H50.0389V4.81982Z" fill="#242D3C"/>
<path d="M22.7955 4.81982H4.96112V6.8354H22.7955V4.81982Z" fill="#242D3C"/>
<path d="M45.9503 5.31374L44.2466 6.32153L52.1373 20.3234L53.841 19.3156L45.9503 5.31374Z" fill="#242D3C"/>
<path d="M44.2592 5.33467L36.3684 19.3365L38.0721 20.3443L45.9629 6.34246L44.2592 5.33467Z" fill="#242D3C"/>
<path d="M35.241 19.2357C35.241 24.8443 39.6462 29.3574 45.1205 29.3574C50.5948 29.3574 55 24.8443 55 19.2357H35.241Z" fill="#275286"/>
<path d="M10.711 5.31582L9.00726 6.32361L16.898 20.3255L18.6017 19.3177L10.711 5.31582Z" fill="#242D3C"/>
<path d="M9.01935 5.33565L1.1286 19.3375L2.83232 20.3453L10.7231 6.34344L9.01935 5.33565Z" fill="#242D3C"/>
<path d="M0 19.2357C0 24.8443 4.40513 29.3574 9.87947 29.3574C15.3538 29.3574 19.7589 24.8443 19.7589 19.2357H0Z" fill="#275286"/>
<path d="M46.1042 45H8.89581V42.7653C8.89581 41.7575 9.28073 40.7936 10.0078 40.0487C10.6921 39.3476 11.633 38.9094 12.6594 38.9094H42.3834C43.367 38.9094 44.3079 39.3038 45.035 40.0487C45.7193 40.7497 46.147 41.7137 46.147 42.7653V45H46.1042ZM10.8632 42.9844H44.1369V42.7653C44.1369 42.2833 43.9658 41.8452 43.6236 41.4946C43.2815 41.1441 42.8538 40.9688 42.3834 40.9688H12.6167C12.1462 40.9688 11.7185 41.1441 11.3764 41.4946C11.0342 41.8452 10.8632 42.2833 10.8632 42.7653V42.9844Z" fill="#242D3C"/>
<path d="M27.5 11.6553C24.3779 11.6553 21.8118 9.02629 21.8118 5.82765C21.8118 2.62902 24.3352 0 27.5 0C30.6221 0 33.1882 2.62902 33.1882 5.82765C33.1882 9.02629 30.6221 11.6553 27.5 11.6553ZM27.5 2.01558C25.4471 2.01558 23.7792 3.72444 23.7792 5.82765C23.7792 7.93087 25.4471 9.63973 27.5 9.63973C29.5529 9.63973 31.2208 7.93087 31.2208 5.82765C31.2208 3.72444 29.5529 2.01558 27.5 2.01558Z" fill="#242D3C"/>
<path d="M28.4837 4.81982H26.5164V6.8354H28.4837V4.81982Z" fill="#242D3C"/>
</svg>
