<svg width="50" height="57" viewBox="0 0 50 57" fill="none" xmlns="http://www.w3.org/2000/svg">
<path d="M34.3981 5.9754L24.5232 18.0196L14.6016 5.9754H34.3981Z" fill="#275286"/>
<path d="M38.8911 9.38324L35.1471 25.2088L24.5234 18.0196L13.8997 25.2088L10.1557 9.38324C3.97803 13.8181 0 21.054 0 29.1769C0 42.6683 10.9513 53.6388 24.5234 53.6388C38.0487 53.6388 49.0468 42.7149 49.0468 29.1769C49 21.054 45.022 13.8181 38.8911 9.38324Z" fill="#275286"/>
<path d="M42.9159 34.7322H33.9771V36.8796H42.9159V34.7322Z" fill="#242D3C"/>
<path d="M38.4231 30.2973L33.9771 34.7322H42.8691L38.4231 30.2973Z" fill="white"/>
<path d="M34.3981 4.90173H14.6016V7.04915H34.3981V4.90173Z" fill="#242D3C"/>
<path d="M11.4331 0.395596L9.7666 1.75513L23.6628 18.7035L25.3292 17.344L11.4331 0.395596Z" fill="#242D3C"/>
<path d="M13.1976 26.9361L8.18994 5.92875L9.78115 0H39.2654L40.8098 5.92875L35.8022 26.9361L24.5233 19.3268L13.1976 26.9361ZM24.5233 16.7592L34.445 23.4816L38.6102 6.02211L37.5806 2.1941H11.4192L10.3896 6.02211L14.5548 23.4816L24.5233 16.7592Z" fill="#242D3C"/>
<path d="M37.5978 0.397717L23.7017 17.3461L25.3682 18.7057L39.2643 1.75725L37.5978 0.397717Z" fill="#242D3C"/>
<path d="M26.91 28.8034H22.0896L18.8604 21.5208L20.826 20.6805L23.4936 26.656H25.506L28.1736 20.6805L30.1392 21.5208L26.91 28.8034Z" fill="#242D3C"/>
<path d="M16.4268 57L14.3208 56.4865L21.9493 26.656H27.0505L34.679 56.4865L32.6197 57L25.3657 28.8034H23.6341L16.4268 57Z" fill="#242D3C"/>
</svg>
