<svg width="11" height="11" viewBox="0 0 11 11" fill="none" xmlns="http://www.w3.org/2000/svg">
<g clip-path="url(#clip0)">
<path d="M8.67598 11C6.54236 11 4.36132 10.0043 2.70184 8.34483L2.65443 8.29741C0.900116 6.5431 -0.0481593 4.31465 -0.000745488 2.18103V2.03879L0.0940821 1.89655C0.236323 1.7069 0.378565 1.51724 0.56822 1.375C1.13719 0.806034 1.80098 0.37931 2.5596 0.0474138C2.65443 0 2.74925 0 2.89149 0C3.12856 0 3.74494 0.142241 3.88718 0.521552C4.12425 1.23276 4.45615 2.18103 4.69322 3.0819C4.74063 3.31897 4.69322 3.93534 4.31391 4.17241L3.50787 4.69396C3.50787 4.69396 3.50787 4.83621 3.6027 4.97845C3.9346 5.40517 4.31391 5.87931 4.74063 6.30603C5.16736 6.73276 5.59408 7.11207 6.0208 7.39655C6.11563 7.44397 6.21046 7.49138 6.30529 7.49138L6.58977 7.06465L6.87425 6.63793C7.11132 6.25862 7.68029 6.25862 7.77511 6.25862C7.82253 6.25862 7.91736 6.25862 7.96477 6.25862C9.05529 6.49569 9.71908 6.73276 10.5725 7.11207C10.9518 7.30172 11.1889 7.96552 10.9993 8.39224C10.7148 9.15086 10.288 9.81465 9.67167 10.3836C9.52942 10.5259 9.33977 10.7155 9.15011 10.8578L9.00787 11H8.67598ZM0.94753 2.37069C0.94753 4.21983 1.84839 6.16379 3.31822 7.68103L3.36563 7.72845C4.88287 9.24569 6.77943 10.0991 8.62856 10.0991C8.72339 10.0043 8.86563 9.90948 8.96046 9.81466C9.4346 9.34052 9.81391 8.77155 10.051 8.15517C10.051 8.15517 10.0036 8.10776 10.0036 8.06034C9.29236 7.72845 8.67598 7.53879 7.68029 7.30172C7.63287 7.30172 7.58546 7.30172 7.58546 7.30172L7.11132 8.06034C6.82684 8.53448 6.0208 8.62931 5.45184 8.20259C4.9777 7.87069 4.50356 7.44396 4.02943 7.01724C3.55529 6.5431 3.17598 6.06897 2.79667 5.59483C2.60701 5.21552 2.51218 4.83621 2.5596 4.50431C2.60701 4.21983 2.74925 4.03017 2.98632 3.88793L3.74494 3.41379C3.74494 3.36638 3.74494 3.31897 3.74494 3.27155C3.55529 2.51293 3.27081 1.65948 2.98632 0.99569C2.98632 0.948276 2.93891 0.948276 2.89149 0.948276C2.27512 1.18534 1.70615 1.56466 1.23201 2.03879C1.13719 2.13362 1.04236 2.22845 0.94753 2.37069Z" fill="white"/>
</g>
<defs>
<clipPath id="clip0">
<rect width="11" height="11" fill="white"/>
</clipPath>
</defs>
</svg>
