<svg width="50" height="50" viewBox="0 0 50 50" fill="none" xmlns="http://www.w3.org/2000/svg">
<path d="M8.65461 18.6009C5.94747 18.6009 3.73254 16.3787 3.73254 13.6626C3.73254 10.9466 5.94747 8.72437 8.65461 8.72437C11.3617 8.72437 13.5767 10.9466 13.5767 13.6626C13.5767 16.3787 11.3617 18.6009 8.65461 18.6009ZM8.65461 10.5762C6.97291 10.5762 5.57832 11.9342 5.57832 13.6626C5.57832 15.3499 6.93189 16.7491 8.65461 16.7491C10.3363 16.7491 11.7309 15.391 11.7309 13.6626C11.6899 11.9342 10.3363 10.5762 8.65461 10.5762Z" fill="#242D3C"/>
<path d="M9.59797 37.9836H7.71118V50.0001H9.59797V37.9836Z" fill="#242D3C"/>
<path d="M5.29122 50.0001H3.44545V36.6256H0V25.6791C0 24.2799 0.533224 22.963 1.51764 21.9754C2.50205 20.9877 3.8146 20.4528 5.20919 20.4528H12.5923V22.3458H5.20919C4.30681 22.3458 3.48646 22.675 2.83019 23.3334C2.21493 23.9507 1.84578 24.8149 1.84578 25.7202V34.8149H5.29122V50.0001Z" fill="#242D3C"/>
<path d="M9.59797 23.9918H7.71118V25.8848H9.59797V23.9918Z" fill="#242D3C"/>
<path d="M13.8638 50.0002H11.9771V34.7327H16.3659V36.6257H13.8638V50.0002Z" fill="#242D3C"/>
<path d="M41.3454 18.6009C38.6383 18.6009 36.4233 16.3787 36.4233 13.6626C36.4233 10.9466 38.6383 8.72437 41.3454 8.72437C44.0525 8.72437 46.2675 10.9466 46.2675 13.6626C46.2675 16.3787 44.0525 18.6009 41.3454 18.6009ZM41.3454 10.5762C39.6637 10.5762 38.2691 11.9342 38.2691 13.6626C38.2691 15.3499 39.6227 16.7491 41.3454 16.7491C43.0271 16.7491 44.4217 15.391 44.4217 13.6626C44.3807 11.9342 43.0271 10.5762 41.3454 10.5762Z" fill="#242D3C"/>
<path d="M42.2888 37.9836H40.402V50.0001H42.2888V37.9836Z" fill="#242D3C"/>
<path d="M46.5546 50.0001H44.6678V34.7326H48.1132V25.6791C48.1132 24.7738 47.7851 23.9507 47.1288 23.2923C46.5135 22.675 45.6522 22.3046 44.7498 22.3046H37.3667V20.4116H44.7498C46.1444 20.4116 47.4569 20.9466 48.4413 21.9343C49.4258 22.9219 49.959 24.2388 49.959 25.638V36.6256H46.5135V50.0001H46.5546Z" fill="#242D3C"/>
<path d="M42.2888 23.9918H40.402V25.8848H42.2888V23.9918Z" fill="#242D3C"/>
<path d="M37.982 50.0002H36.0952V36.6257H33.6342V34.7327H37.982V50.0002Z" fill="#242D3C"/>
<path d="M33.0188 16.0082C31.9933 14.9794 30.6398 14.4445 29.2452 14.4445L24.9794 18.7243L20.7546 14.4445C19.401 14.4445 18.0475 14.9794 16.981 16.0082C15.9556 17.0371 15.4224 18.3951 15.4224 19.7943V29.3827H19.6882V33.1276H30.3116V29.3827H34.5774V19.7943C34.5774 18.4362 34.0442 17.0782 33.0188 16.0082Z" fill="#275286"/>
<path d="M24.9795 11.8519C21.7391 11.8519 19.073 9.17695 19.073 5.92593C19.073 2.6749 21.7391 0 24.9795 0C28.2198 0 30.886 2.6749 30.886 5.92593C30.886 9.17695 28.2609 11.8519 24.9795 11.8519ZM24.9795 1.893C22.7645 1.893 20.9598 3.7037 20.9598 5.92593C20.9598 8.14815 22.7645 9.95885 24.9795 9.95885C27.1944 9.95885 28.9992 8.14815 28.9992 5.92593C28.9992 3.7037 27.1944 1.893 24.9795 1.893Z" fill="#242D3C"/>
<path d="M25.9228 35.0618H24.036V50H25.9228V35.0618Z" fill="#242D3C"/>
<path d="M20.6315 29.3827H18.7448V50H20.6315V29.3827Z" fill="#242D3C"/>
<path d="M31.2551 29.3827H29.3683V50H31.2551V29.3827Z" fill="#242D3C"/>
<path d="M35.5208 33.1687H30.3117V31.2757H33.6341V19.7531C33.6341 18.6008 33.1829 17.4897 32.3625 16.6666C31.5422 15.8436 30.4347 15.3909 29.2862 15.3909H20.7546C19.6062 15.3909 18.4987 15.8436 17.6783 16.6666C16.858 17.4897 16.4068 18.6008 16.4068 19.7531V31.2757H19.6882V33.1687H14.479V19.7942C14.479 18.107 15.1353 16.5432 16.3248 15.3498C17.5143 14.1564 19.0729 13.4979 20.7546 13.4979H29.2452C30.9269 13.4979 32.4856 14.1564 33.6751 15.3498C34.8646 16.5432 35.5208 18.107 35.5208 19.7942V33.1687Z" fill="#242D3C"/>
<path d="M25.9228 20.4938H24.036V22.3868H25.9228V20.4938Z" fill="white"/>
<path d="M25.9228 24.2798H24.036V26.1728H25.9228V24.2798Z" fill="white"/>
</svg>
