<svg width="58" height="43" viewBox="0 0 58 43" fill="none" xmlns="http://www.w3.org/2000/svg">
<path d="M25.6889 36.5364L4.97778 26.1231V16.8767L25.6889 6.41846V36.5364Z" fill="#275286"/>
<path d="M6 27.5594H0V15.4404H6V27.5594ZM2.04444 25.4947H4V17.5051H2.04444V25.4947Z" fill="#242D3C"/>
<path d="M30.6666 38.6012H24.6666V4.39868H30.6666V38.6012ZM26.7111 36.5365H28.6666V6.4634H26.7111V36.5365Z" fill="#242D3C"/>
<path d="M33.5555 15.2609L32.1333 13.8246L41.4666 4.39868H45.2444V6.4634H42.3111L33.5555 15.2609Z" fill="#242D3C"/>
<path d="M45.2444 38.6012H41.4666L32.1333 29.1753L33.5555 27.6941L42.3111 36.5365H45.2444V38.6012Z" fill="#242D3C"/>
<path d="M45.2445 20.4675H32.8445V22.5322H45.2445V20.4675Z" fill="#242D3C"/>
<path d="M57.9999 32.1377H47.2444V42.9999H57.9999V32.1377Z" fill="#275286"/>
<path d="M55.3777 34.5615H49.8221V36.6262H55.3777V34.5615Z" fill="white"/>
<path d="M55.3777 38.4666H49.8221V40.5313H55.3777V38.4666Z" fill="white"/>
<path d="M57.9999 0H47.2444V10.8622H57.9999V0Z" fill="#275286"/>
<path d="M55.3777 2.42383H49.8221V4.48855H55.3777V2.42383Z" fill="white"/>
<path d="M55.3777 6.32886H49.8221V8.39358H55.3777V6.32886Z" fill="white"/>
<path d="M57.9999 16.0688H47.2444V26.9311H57.9999V16.0688Z" fill="#275286"/>
<path d="M55.3777 18.4927H49.8221V20.5574H55.3777V18.4927Z" fill="white"/>
<path d="M55.3777 22.3977H49.8221V24.4624H55.3777V22.3977Z" fill="white"/>
</svg>
