<svg width="46" height="51" viewBox="0 0 46 51" fill="none" xmlns="http://www.w3.org/2000/svg">
<path d="M42.3136 30.9728V12.7302H38.6272V9.12134H34.9808V20.0272H31.2944V28.2364H37.7056V35.5335H41.392V51H46V30.9728H42.3136Z" fill="#275286"/>
<path d="M11.0592 23.6757V20.0272H7.37282V16.3787H3.68641V23.6757V38.2301H0V51H4.60801V35.5334H8.29443V28.2364H14.7056V23.6757H11.0592Z" fill="#275286"/>
<path d="M23.9216 5.47278H22.0784V7.29704H23.9216V5.47278Z" fill="#242D3C"/>
<path d="M23.9216 9.12134H22.0784V10.9456H23.9216V9.12134Z" fill="#242D3C"/>
<path d="M23.9216 12.7301H22.0784V14.5544H23.9216V12.7301Z" fill="#242D3C"/>
<path d="M23.9216 16.3787H22.0784V18.2029H23.9216V16.3787Z" fill="#242D3C"/>
<path d="M23.9216 20.0272H22.0784V21.8515H23.9216V20.0272Z" fill="#242D3C"/>
<path d="M23.9216 23.6757H22.0784V25.4999H23.9216V23.6757Z" fill="#242D3C"/>
<path d="M23.9216 27.3242H22.0784V29.1485H23.9216V27.3242Z" fill="#242D3C"/>
<path d="M23.9216 30.9728H22.0784V32.797H23.9216V30.9728Z" fill="#242D3C"/>
<path d="M23.9216 34.6213H22.0784V36.4456H23.9216V34.6213Z" fill="#242D3C"/>
<path d="M23.9216 38.2302H22.0784V40.0545H23.9216V38.2302Z" fill="#242D3C"/>
<path d="M23.9216 41.8787H22.0784V43.7029H23.9216V41.8787Z" fill="#242D3C"/>
<path d="M23.9216 45.5272H22.0784V47.3515H23.9216V45.5272Z" fill="#242D3C"/>
<path d="M27.608 12.7302H25.7648V14.5545H27.608V12.7302Z" fill="#242D3C"/>
<path d="M27.608 16.3788H25.7648V18.203H27.608V16.3788Z" fill="#242D3C"/>
<path d="M27.608 20.0272H25.7648V21.8515H27.608V20.0272Z" fill="#242D3C"/>
<path d="M27.608 23.6758H25.7648V25.5H27.608V23.6758Z" fill="#242D3C"/>
<path d="M27.608 27.3243H25.7648V29.1486H27.608V27.3243Z" fill="#242D3C"/>
<path d="M27.608 30.9728H25.7648V32.797H27.608V30.9728Z" fill="#242D3C"/>
<path d="M27.608 34.6213H25.7648V36.4456H27.608V34.6213Z" fill="#242D3C"/>
<path d="M27.608 38.2302H25.7648V40.0545H27.608V38.2302Z" fill="#242D3C"/>
<path d="M27.608 41.8788H25.7648V43.703H27.608V41.8788Z" fill="#242D3C"/>
<path d="M27.608 45.5273H25.7648V47.3516H27.608V45.5273Z" fill="#242D3C"/>
<path d="M20.2352 12.7302H18.392V14.5545H20.2352V12.7302Z" fill="#242D3C"/>
<path d="M20.2352 16.3788H18.392V18.203H20.2352V16.3788Z" fill="#242D3C"/>
<path d="M20.2352 20.0272H18.392V21.8515H20.2352V20.0272Z" fill="#242D3C"/>
<path d="M20.2352 23.6758H18.392V25.5H20.2352V23.6758Z" fill="#242D3C"/>
<path d="M20.2352 27.3243H18.392V29.1486H20.2352V27.3243Z" fill="#242D3C"/>
<path d="M20.2352 30.9728H18.392V32.797H20.2352V30.9728Z" fill="#242D3C"/>
<path d="M20.2352 34.6213H18.392V36.4456H20.2352V34.6213Z" fill="#242D3C"/>
<path d="M20.2352 38.2302H18.392V40.0545H20.2352V38.2302Z" fill="#242D3C"/>
<path d="M20.2352 41.8788H18.392V43.703H20.2352V41.8788Z" fill="#242D3C"/>
<path d="M20.2352 45.5273H18.392V47.3516H20.2352V45.5273Z" fill="#242D3C"/>
<path d="M31.2944 51H14.7056V9.12126H18.392V1.82422H27.608V9.12126H31.2944V51ZM16.5488 49.1757H29.4111V10.9455H25.7247V3.64848H20.2352V10.9455H16.5488V49.1757Z" fill="#242D3C"/>
<path d="M23.9216 0H22.0784V2.73639H23.9216V0Z" fill="#242D3C"/>
<path d="M34.9808 30.9728H33.1376V32.797H34.9808V30.9728Z" fill="#242D3C"/>
<path d="M34.9808 34.6213H33.1376V36.4456H34.9808V34.6213Z" fill="#242D3C"/>
<path d="M34.9808 38.2301H33.1376V40.0544H34.9808V38.2301Z" fill="#242D3C"/>
<path d="M34.9808 41.8787H33.1376V43.7029H34.9808V41.8787Z" fill="#242D3C"/>
<path d="M34.9808 45.5272H33.1376V47.3515H34.9808V45.5272Z" fill="#242D3C"/>
<path d="M38.6271 38.2301H36.7839V40.0544H38.6271V38.2301Z" fill="#242D3C"/>
<path d="M38.6271 41.8787H36.7839V43.7029H38.6271V41.8787Z" fill="#242D3C"/>
<path d="M38.6271 45.5271H36.7839V47.3514H38.6271V45.5271Z" fill="#242D3C"/>
<path d="M42.3135 51H29.4512V27.3242H38.6672V34.6213H42.3536V51H42.3135ZM31.2944 49.1757H40.5104V36.4059H36.824V29.1485H31.2944V49.1757Z" fill="#242D3C"/>
<path d="M12.9024 30.9728H11.0592V32.797H12.9024V30.9728Z" fill="#242D3C"/>
<path d="M12.9024 34.6213H11.0592V36.4456H12.9024V34.6213Z" fill="#242D3C"/>
<path d="M12.9024 38.2301H11.0592V40.0544H12.9024V38.2301Z" fill="#242D3C"/>
<path d="M12.9024 41.8787H11.0592V43.7029H12.9024V41.8787Z" fill="#242D3C"/>
<path d="M12.9024 45.5272H11.0592V47.3515H12.9024V45.5272Z" fill="#242D3C"/>
<path d="M9.21601 38.2301H7.3728V40.0544H9.21601V38.2301Z" fill="#242D3C"/>
<path d="M9.21601 41.8787H7.3728V43.7029H9.21601V41.8787Z" fill="#242D3C"/>
<path d="M9.21601 45.5271H7.3728V47.3514H9.21601V45.5271Z" fill="#242D3C"/>
<path d="M16.5488 51H3.6864V34.6213H7.37281V27.3242H16.5888V51H16.5488ZM5.52961 49.1757H14.7456V29.1485H9.21602V36.4455H5.52961V49.1757Z" fill="#242D3C"/>
</svg>
