<svg width="52" height="48" viewBox="0 0 52 48" fill="none" xmlns="http://www.w3.org/2000/svg">
<path d="M31.257 37.1113C31.257 31.6466 35.699 27.2014 41.1599 27.2014C41.9749 27.2014 42.7492 27.2829 43.4827 27.4868C43.1975 21.6958 40.1003 16.6389 35.536 13.7026C34.3135 17.7808 30.5235 20.7986 26 20.7986C21.5172 20.7986 17.6865 17.7808 16.5047 13.7026C11.9404 16.6797 8.84325 21.7366 8.55798 27.4868C9.29153 27.3237 10.0658 27.2014 10.8809 27.2014C16.3417 27.2014 20.7837 31.6466 20.7837 37.1113C20.7837 39.7621 19.7649 42.1682 18.0533 43.9218C20.4577 45.1453 23.1473 45.8386 26 45.8386C28.8527 45.8386 31.5831 45.1453 33.9467 43.9218C32.2759 42.1682 31.257 39.7621 31.257 37.1113Z" fill="#275286"/>
<path d="M30.1159 19.5344C30.0344 19.0043 29.7899 18.5149 29.4231 18.1479C28.9748 17.6993 28.3636 17.4138 27.7115 17.4138H24.3291C23.677 17.4138 23.0657 17.6585 22.6175 18.1479C22.2507 18.5149 22.0062 19.0043 21.9247 19.5344L20.0908 19.249C20.2131 18.311 20.6614 17.4954 21.3134 16.8428C22.1284 16.0272 23.2288 15.5786 24.3698 15.5786H27.7115C28.8526 15.5786 29.9529 16.0272 30.7679 16.8428C31.42 17.4954 31.8275 18.3518 31.9905 19.249L30.1159 19.5344Z" fill="#242D3C"/>
<path d="M25.9998 14.6405C23.9215 14.6405 22.2506 12.9685 22.2506 10.8886C22.2506 8.80877 23.9215 7.13672 25.9998 7.13672C28.0782 7.13672 29.749 8.80877 29.749 10.8886C29.7898 12.9277 28.0782 14.6405 25.9998 14.6405ZM25.9998 8.97189C24.9403 8.97189 24.0845 9.82831 24.0845 10.8886C24.0845 11.949 24.9403 12.8054 25.9998 12.8054C27.0594 12.8054 27.9152 11.949 27.9152 10.8886C27.9152 9.82831 27.0594 8.97189 25.9998 8.97189Z" fill="#242D3C"/>
<path d="M37.0438 45.8386L35.21 45.5532C35.3322 44.6152 35.7805 43.7996 36.4325 43.147C37.2476 42.3314 38.3479 41.8828 39.489 41.8828H42.8714C44.0125 41.8828 45.1128 42.3314 45.9278 43.147C46.5799 43.7996 47.0281 44.656 47.1504 45.5532L45.3165 45.8386C45.235 45.3085 44.9905 44.8599 44.6238 44.4521C44.1755 44.0035 43.5642 43.7588 42.9122 43.7588H39.5297C38.8777 43.7588 38.2664 44.0035 37.8181 44.4928C37.3698 44.8191 37.1253 45.3085 37.0438 45.8386Z" fill="#242D3C"/>
<path d="M41.1597 40.904C39.0814 40.904 37.4105 39.2319 37.4105 37.1521C37.4105 35.0722 39.0814 33.4001 41.1597 33.4001C43.2381 33.4001 44.909 35.0722 44.909 37.1521C44.909 39.2319 43.2381 40.904 41.1597 40.904ZM41.1597 35.2353C40.1002 35.2353 39.2444 36.0917 39.2444 37.1521C39.2444 38.2124 40.1002 39.0688 41.1597 39.0688C42.2193 39.0688 43.0751 38.2124 43.0751 37.1521C43.0751 36.0917 42.2193 35.2353 41.1597 35.2353Z" fill="#242D3C"/>
<path d="M14.9561 45.8386C14.8746 45.3085 14.6301 44.8191 14.2633 44.4521C13.815 44.0035 13.2038 43.718 12.5517 43.718H9.16927C8.51724 43.718 7.90595 43.9627 7.45768 44.4521C7.0909 44.8191 6.84639 45.3085 6.76489 45.8386L4.93103 45.5532C5.05329 44.6152 5.50156 43.7996 6.1536 43.147C6.96865 42.3314 8.06896 41.8828 9.21003 41.8828H12.5925C13.7335 41.8828 14.8339 42.3314 15.6489 43.147C16.3009 43.7996 16.7085 44.656 16.8715 45.5532L14.9561 45.8386Z" fill="#242D3C"/>
<path d="M10.84 40.904C8.76167 40.904 7.09082 39.2319 7.09082 37.1521C7.09082 35.0722 8.76167 33.4001 10.84 33.4001C12.9184 33.4001 14.5893 35.0722 14.5893 37.1521C14.5893 39.2319 12.9184 40.904 10.84 40.904ZM10.84 35.2353C9.78048 35.2353 8.92468 36.0917 8.92468 37.1521C8.92468 38.2124 9.78048 39.0688 10.84 39.0688C11.8996 39.0688 12.7554 38.2124 12.7554 37.1521C12.7554 36.0917 11.8996 35.2353 10.84 35.2353Z" fill="#242D3C"/>
<path d="M26.9374 23.1641H25.0627V28.3433H26.9374V23.1641Z" fill="white"/>
<path d="M25.5018 27.5556L21.0203 30.1458L21.9578 31.7701L26.4393 29.18L25.5018 27.5556Z" fill="white"/>
<path d="M26.477 27.5685L25.5396 29.1931L30.0216 31.7833L30.9591 30.1587L26.477 27.5685Z" fill="white"/>
<path d="M26 21.7366C20.0094 21.7366 15.1599 16.8836 15.1599 10.8887C15.1599 4.85302 20.0094 0 26 0C31.9906 0 36.8402 4.85302 36.8402 10.8479C36.8402 16.8428 31.9906 21.7366 26 21.7366ZM26 1.87596C21.0282 1.87596 17.0345 5.91334 17.0345 10.8479C17.0345 15.8233 21.069 19.8199 26 19.8199C30.9718 19.8199 34.9656 15.7825 34.9656 10.8479C35.0063 5.91334 30.9718 1.87596 26 1.87596Z" fill="#242D3C"/>
<path d="M41.1598 48C35.1692 48 30.3197 43.147 30.3197 37.1521C30.3197 31.1572 35.1692 26.3042 41.1598 26.3042C47.1504 26.3042 51.9999 31.1572 51.9999 37.1521C51.9999 43.1062 47.1504 48 41.1598 48ZM41.1598 28.1394C36.188 28.1394 32.1943 32.1768 32.1943 37.1113C32.1943 42.0867 36.2288 46.0833 41.1598 46.0833C46.1316 46.0833 50.1253 42.0459 50.1253 37.1113C50.1253 32.1768 46.1316 28.1394 41.1598 28.1394Z" fill="#242D3C"/>
<path d="M10.8401 48C4.84953 48 0 43.1063 0 37.1113C0 31.1164 4.84953 26.2634 10.8401 26.2634C16.8307 26.2634 21.6803 31.1164 21.6803 37.1113C21.6803 43.1063 16.8307 48 10.8401 48ZM10.8401 28.1394C5.86834 28.1394 1.87461 32.1768 1.87461 37.1113C1.87461 42.0867 5.90909 46.0833 10.8401 46.0833C15.8119 46.0833 19.8056 42.0459 19.8056 37.1113C19.8464 32.1768 15.8119 28.1394 10.8401 28.1394Z" fill="#242D3C"/>
</svg>
