<svg width="52" height="47" viewBox="0 0 52 47" fill="none" xmlns="http://www.w3.org/2000/svg">
<path d="M39 17.5552C39 22.1036 35.3425 25.7742 30.8104 25.7742C26.2385 25.8141 22.5811 22.1036 22.5811 17.5552C22.5811 13.0068 26.2385 9.33618 30.7707 9.33618C35.3028 9.33618 39 13.0068 39 17.5552Z" fill="#275286"/>
<path d="M31.367 22.0635H30.1743C29.4587 22.0635 28.7829 21.7842 28.2661 21.2655C27.7493 20.7469 27.471 20.0686 27.471 19.3504H29.2997C29.2997 19.5898 29.3792 19.7893 29.5382 19.9489C29.6973 20.1085 29.9358 20.1883 30.1346 20.1883H31.3272C31.5658 20.1883 31.7645 20.1085 31.9236 19.9489C32.0826 19.7893 32.1621 19.5499 32.1621 19.3504C32.1621 19.111 32.0826 18.9116 31.9236 18.752C31.7645 18.5924 31.526 18.5126 31.3272 18.5126H30.1346C29.419 18.5126 28.7431 18.2333 28.2263 17.7146C27.7095 17.1959 27.4312 16.5177 27.4312 15.7995C27.4312 15.0813 27.7095 14.4031 28.2263 13.8844C28.7431 13.3657 29.419 13.0864 30.1346 13.0864H31.3272C32.0428 13.0864 32.7187 13.3657 33.2355 13.8844C33.7523 14.4031 34.0306 15.0813 34.0306 15.7995H32.2019C32.2019 15.5601 32.1223 15.3606 31.9633 15.201C31.8043 15.0414 31.5658 14.9616 31.367 14.9616H30.1743C29.9358 14.9616 29.737 15.0414 29.578 15.201C29.419 15.3606 29.3395 15.6 29.3395 15.7995C29.3395 16.0389 29.419 16.2384 29.578 16.398C29.737 16.5576 29.9756 16.6374 30.1743 16.6374H31.367C32.0826 16.6374 32.7584 16.9166 33.2752 17.4353C33.7921 17.954 34.0704 18.6323 34.0704 19.3504C34.0704 20.0686 33.7921 20.7469 33.2752 21.2655C32.7584 21.7842 32.0826 22.0635 31.367 22.0635Z" fill="white"/>
<path d="M31.6851 12.5679H29.8563V14.0042H31.6851V12.5679Z" fill="white"/>
<path d="M31.6851 21.146H29.8563V22.5823H31.6851V21.146Z" fill="white"/>
<path d="M10.4954 22.9414H0V44.3667H10.4954V22.9414Z" fill="#275286"/>
<path d="M8.66664 39.2996H6.83789V41.1349H8.66664V39.2996Z" fill="white"/>
<path d="M29.8563 47.0001C29.0612 47.0001 28.3058 46.8405 27.5505 46.5612L13.9144 41.0952H10.5352V39.2599H14.2722L28.2263 44.8855C28.9021 45.1249 29.6177 45.2446 30.3731 45.1648C31.1284 45.085 31.8043 44.8456 32.4404 44.4466L49.6147 33.1554C49.9327 32.916 50.1315 32.5969 50.1712 32.1979C50.211 31.7989 50.1315 31.4398 49.893 31.1206L49.8532 31.0807C49.6544 30.8014 49.3364 30.602 48.9786 30.5222C48.6208 30.4424 48.263 30.5222 47.945 30.7217L38.8012 36.4271L37.8471 34.8711L46.9908 29.1656C47.6667 28.7267 48.5015 28.5672 49.2966 28.7267C50.0917 28.8863 50.8073 29.3252 51.2844 29.9636L51.3242 30.0035C51.841 30.7217 52.0795 31.5994 51.9602 32.4373C51.841 33.315 51.3639 34.0731 50.6483 34.5918L50.6086 34.6317L33.3945 45.9627C32.5199 46.5213 31.5657 46.8405 30.5321 46.9602C30.2936 47.0001 30.055 47.0001 29.8563 47.0001Z" fill="#242D3C"/>
<path d="M23.4159 38.5416H21.5871C21.5871 36.7861 23.0183 35.3498 24.7676 35.3498H36.7737C37.529 35.3498 38.1651 34.7114 38.1651 33.9533C38.1651 33.1953 37.529 32.5569 36.7737 32.5569H24.529L20.1162 29.7241C19.2416 29.1656 18.2477 28.7267 17.2538 28.4075C16.2599 28.1282 15.1865 27.9686 14.1529 27.9686H10.5352V26.1333H14.1529C15.3853 26.1333 16.6177 26.2929 17.7706 26.652C18.9633 27.0111 20.0764 27.5297 21.1101 28.1681L25.0856 30.7216H36.8134C38.5627 30.7216 39.9939 32.1579 39.9939 33.9134C39.9939 35.669 38.5627 37.1053 36.8134 37.1053H24.8073C24.052 37.1851 23.4159 37.7836 23.4159 38.5416Z" fill="#242D3C"/>
<path d="M24.8869 6.46362H23.0581V9.21659H24.8869V6.46362Z" fill="#242D3C"/>
<path d="M36.0183 3.07227H34.1896V7.30147H36.0183V3.07227Z" fill="#242D3C"/>
<path d="M31.685 0H29.8563V6.02462H31.685V0Z" fill="#242D3C"/>
</svg>
