<svg width="61" height="44" viewBox="0 0 61 44" fill="none" xmlns="http://www.w3.org/2000/svg">
<path d="M56.5247 40.1046H10.5173V12.7928C10.5173 12.1288 10.7859 11.5091 11.2334 11.0664C11.6809 10.5795 12.3075 10.3582 12.9788 10.3582H53.9737C54.645 10.3582 55.2715 10.6237 55.7191 11.0664C56.2114 11.5533 56.4352 12.173 56.4352 12.7928V40.1046H56.5247ZM12.576 38.0684H54.466V12.7928C54.466 12.66 54.4212 12.5714 54.3317 12.4829C54.2422 12.3944 54.1527 12.3501 54.0184 12.3501H13.0236C12.9341 12.3501 12.8446 12.3501 12.7103 12.4829C12.6208 12.5714 12.576 12.7042 12.576 12.7928V38.0684Z" fill="#242D3C"/>
<path d="M52.989 40.1046H14.0529V13.8108H52.989V40.1046ZM16.1116 38.0683H50.9303V15.847H16.1116V38.0683Z" fill="#242D3C"/>
<path d="M58.0015 43.9999H9.0404C8.23483 43.9999 7.51876 43.6901 6.93695 43.1589C6.35515 42.5834 6.04187 41.8752 6.04187 41.0784V38.0684H60.9553V41.0342C60.9553 41.8309 60.642 42.5834 60.0602 43.1146C59.5232 43.6901 58.8071 43.9999 58.0015 43.9999ZM8.10056 40.1046V41.0342C8.10056 41.2997 8.19007 41.5211 8.36909 41.6981C8.54811 41.8752 8.77188 41.9637 9.0404 41.9637H58.0015C58.27 41.9637 58.4938 41.8752 58.6728 41.6981C58.8519 41.5211 58.9414 41.2997 58.9414 41.0342V40.1046H8.10056Z" fill="#242D3C"/>
<path d="M24.391 18.8572H0V35.1026H24.391V18.8572Z" fill="#275286"/>
<path d="M8.10056 25.4971H6.04187V29.5252H8.10056V25.4971Z" fill="white"/>
<path d="M4.6992 28.3301H2.6405V29.5252H4.6992V28.3301Z" fill="white"/>
<path d="M11.5018 27.0464H9.44312V29.5695H11.5018V27.0464Z" fill="white"/>
<path d="M14.9479 23.5493H12.8892V29.5694H14.9479V23.5493Z" fill="white"/>
<path d="M18.3492 24.9658H16.2905V29.5694H18.3492V24.9658Z" fill="white"/>
<path d="M21.7953 21.823H19.7366V29.5252H21.7953V21.823Z" fill="white"/>
<path d="M21.7953 30.7646H2.6405V32.8009H21.7953V30.7646Z" fill="white"/>
<path d="M61 2.25757H29.2693V22.7968H61V2.25757Z" fill="#275286"/>
<path d="M34.9083 16.8652L33.4762 15.4487L39.0257 9.91549L42.6956 13.501L47.5738 8.72032L51.1989 12.3058L55.3162 8.2334L56.7931 9.6499L51.1989 15.1831L47.5738 11.5533L42.6956 16.3783L39.0257 12.7928L34.9083 16.8652Z" fill="white"/>
<path d="M57.1065 12.6157H55.0478V9.9598H52.3177V7.92358H57.1065V12.6157Z" fill="white"/>
<path d="M40.8158 34.9697C38.4438 34.9697 36.5194 33.0663 36.5194 30.7202C36.5194 28.3741 38.4438 26.4707 40.8158 26.4707C43.1878 26.4707 45.1122 28.3741 45.1122 30.7202C45.1122 33.0663 43.1878 34.9697 40.8158 34.9697ZM40.8158 28.5069C39.5627 28.5069 38.5781 29.525 38.5781 30.7202C38.5781 31.9596 39.6074 32.9335 40.8158 32.9335C42.0689 32.9335 43.0535 31.9154 43.0535 30.7202C43.0535 29.4808 42.0689 28.5069 40.8158 28.5069Z" fill="#242D3C"/>
<path d="M18.7521 6.90543C16.8276 6.90543 15.2612 5.35614 15.2612 3.45272C15.2612 1.5493 16.8276 0 18.7521 0C20.6765 0 22.2429 1.5493 22.2429 3.45272C22.2429 5.35614 20.6765 6.90543 18.7521 6.90543ZM18.7521 2.03622C17.9465 2.03622 17.3199 2.65594 17.3199 3.45272C17.3199 4.2495 17.9465 4.86922 18.7521 4.86922C19.5576 4.86922 20.1842 4.2495 20.1842 3.45272C20.1842 2.65594 19.5576 2.03622 18.7521 2.03622Z" fill="#242D3C"/>
</svg>
