<svg width="58" height="44" viewBox="0 0 58 44" fill="none" xmlns="http://www.w3.org/2000/svg">
<g clip-path="url(#clip0)">
<path d="M46.1305 23.0564L41.0585 28.1028L42.5183 29.552L47.5904 24.5056L46.1305 23.0564Z" fill="#242D3C"/>
<path d="M11.8781 23.0482L10.4188 24.498L15.493 29.5423L16.9523 28.0925L11.8781 23.0482Z" fill="#242D3C"/>
<path d="M24.6582 10.3409L23.1987 11.7905L28.2722 16.8355L29.7317 15.3859L24.6582 10.3409Z" fill="#242D3C"/>
<path d="M17.8081 33.6574C16.911 33.6574 16.1036 33.3008 15.4756 32.7213C14.8476 32.0972 14.5336 31.2947 14.5336 30.4031C14.5336 29.5115 14.8924 28.7091 15.4756 28.085C16.1036 27.4609 16.911 27.1042 17.8081 27.1042C18.6604 27.1042 19.5127 27.4609 20.1407 28.0404C20.7687 28.6645 21.1275 29.467 21.1275 30.3586C21.1275 31.2056 20.8135 31.9634 20.2304 32.5875L20.1407 32.6767C19.5127 33.3454 18.7053 33.6574 17.8081 33.6574ZM17.8081 29.1995C17.4941 29.1995 17.1801 29.3332 16.911 29.5561C16.6867 29.779 16.5521 30.0911 16.5521 30.4031C16.5521 30.7152 16.6867 31.0272 16.911 31.2947C17.1353 31.5176 17.4493 31.6514 17.7633 31.6514C18.0773 31.6514 18.3913 31.5176 18.6155 31.2947C18.8398 31.0718 18.9744 30.7598 18.9744 30.4031C18.9744 30.0911 18.8398 29.779 18.6155 29.5561C18.4361 29.3332 18.1221 29.1995 17.8081 29.1995Z" fill="#242D3C"/>
<path d="M20.9929 36.8671C20.0958 36.8671 19.2884 36.5104 18.6604 35.8863C18.0324 35.2622 17.7184 34.4598 17.7184 33.5682C17.7184 32.7212 18.0324 31.9633 18.6155 31.3392L18.7052 31.25C19.3332 30.6259 20.1407 30.2693 21.0378 30.2693C21.9349 30.2693 22.7424 30.6259 23.3704 31.25C23.9984 31.8741 24.3124 32.6766 24.3124 33.5682C24.3124 34.4152 23.9984 35.173 23.4152 35.7971L23.3255 35.8863C22.7424 36.5104 21.8901 36.8671 20.9929 36.8671ZM20.1855 32.6766C19.9164 32.9441 19.7818 33.2561 19.7818 33.5682C19.7818 33.8802 19.9164 34.1923 20.1407 34.4152C20.5892 34.861 21.3967 34.861 21.8452 34.4598L21.8901 34.4152C22.1144 34.1923 22.2489 33.8802 22.2489 33.5682C22.2489 33.2561 22.1144 32.9441 21.8901 32.7212C21.4415 32.2754 20.6341 32.2754 20.1855 32.6766Z" fill="#242D3C"/>
<path d="M24.2227 40.0323V39.007V40.0323C23.3704 40.0323 22.5181 39.6757 21.8901 39.0961C21.2621 38.472 20.9481 37.6696 20.9481 36.778C20.9481 35.931 21.2621 35.1731 21.8453 34.549L21.935 34.4599C22.563 33.8357 23.3704 33.5237 24.2675 33.5237C25.1647 33.5237 25.9721 33.8803 26.6001 34.4599C27.2281 35.084 27.5421 35.931 27.5421 36.778C27.5421 37.6696 27.1832 38.472 26.6001 39.0961C25.8824 39.6757 25.075 40.0323 24.2227 40.0323ZM23.3704 35.8864C23.1013 36.1539 22.9667 36.4659 22.9667 36.778C22.9667 37.09 23.1013 37.4021 23.3255 37.625C23.5498 37.8479 23.8638 37.9816 24.1778 37.9816C24.4918 37.9816 24.8058 37.8479 25.0301 37.625C25.2544 37.4021 25.389 37.09 25.389 36.778C25.389 36.4659 25.2544 36.1539 25.0301 35.8864C24.6264 35.4406 23.819 35.4406 23.3704 35.8864Z" fill="#242D3C"/>
<path d="M27.4075 43.1975C26.5104 43.1975 25.703 42.8408 25.075 42.2167C24.447 41.5926 24.0881 40.7902 24.0881 39.8986C24.0881 39.007 24.447 38.2046 25.075 37.5805C25.703 36.9563 26.5104 36.6443 27.4075 36.6443C28.2598 36.6443 29.1121 37.0009 29.7401 37.5805C30.3681 38.2046 30.727 39.007 30.727 39.8986C30.727 40.7902 30.3681 41.5926 29.7401 42.2167C29.0673 42.8854 28.2598 43.1975 27.4075 43.1975ZM27.4075 38.6949C27.0935 38.6949 26.7795 38.8287 26.5553 39.0516C26.331 39.2745 26.1964 39.5865 26.1964 39.8986C26.1964 40.2107 26.331 40.5227 26.5553 40.7456C27.0038 41.1914 27.8113 41.236 28.3047 40.7456C28.529 40.5227 28.6635 40.2107 28.6635 39.8986C28.6635 39.5865 28.529 39.2745 28.3047 39.0516C28.0355 38.8287 27.7215 38.6949 27.4075 38.6949Z" fill="#242D3C"/>
<path d="M17.4587 -0.00203957L-0.015625 17.3691L8.77159 26.0996L26.2459 8.72837L17.4587 -0.00203957Z" fill="#275286"/>
<path d="M40.5223 -0.0175219L31.7351 8.71289L49.2094 26.0841L57.9966 17.3537L40.5223 -0.0175219Z" fill="#275286"/>
<path d="M31.3998 43.9998C30.5475 43.9998 29.6953 43.6432 29.0673 43.0637L28.2598 42.2612L29.6953 40.8347L30.5027 41.6371C30.9512 42.0829 31.7587 42.0829 32.2521 41.6371C32.4764 41.4142 32.611 41.1022 32.611 40.7901C32.611 40.4781 32.4764 40.166 32.2521 39.9431L33.6875 38.5166C34.1361 38.9623 34.9435 39.0069 35.4369 38.5166C35.6612 38.2937 35.7958 37.9816 35.7958 37.6695C35.7958 37.3575 35.6612 37.0454 35.4369 36.778L36.9172 35.3514C37.1415 35.5743 37.4555 35.708 37.7695 35.708C38.0835 35.708 38.3975 35.5743 38.6218 35.3514C38.8461 35.1285 38.9806 34.8165 38.9806 34.5044C38.9806 34.1923 38.8461 33.8803 38.6218 33.6574L40.1021 32.2308C40.5506 32.6766 41.3581 32.6766 41.8515 32.2308C42.0758 32.0079 42.2103 31.6959 42.2103 31.3838C42.2103 31.0718 42.0758 30.7597 41.8515 30.5368L36.1995 24.7415C35.1678 25.4993 33.9118 25.856 32.611 25.856C31.0858 25.856 29.6504 25.321 28.529 24.3403L25.5684 27.3271C24.9404 27.9512 24.133 28.3078 23.2359 28.3078C22.3836 28.3078 21.5313 27.9512 20.9033 27.3271C20.2753 26.703 19.9613 25.9005 19.9613 25.009C19.9613 24.1619 20.3202 23.3149 20.9033 22.6908L33.3287 10.3423L34.7641 11.7688L22.3836 24.1174C22.1593 24.3403 22.0247 24.6523 22.0247 24.9644C22.0247 25.2764 22.1593 25.5885 22.3836 25.8114C22.6079 26.0343 22.9219 26.168 23.2359 26.168C23.5499 26.168 23.8639 26.0343 24.0881 25.8114L28.529 21.398L29.6953 22.5571C30.4578 23.3149 31.4895 23.7607 32.611 23.7607C33.7324 23.7607 34.7641 23.3149 35.5267 22.5571L36.2444 21.8438L43.2869 28.8428C43.9149 29.4669 44.2738 30.2693 44.2289 31.1609C44.2289 32.0525 43.87 32.855 43.2869 33.4791C42.7038 34.0586 41.8963 34.4152 41.0441 34.4152C41.0441 35.2622 40.6852 36.0201 40.1021 36.6442C39.5189 37.2237 38.7115 37.5804 37.8592 37.5804C37.8592 38.4274 37.5004 39.1852 36.9172 39.8094C36.3341 40.3889 35.5267 40.7455 34.6744 40.7901C34.6295 41.6371 34.3155 42.395 33.6875 43.0191C33.1044 43.6878 32.297 43.9998 31.3998 43.9998Z" fill="#242D3C"/>
<path d="M49.0491 20.1755L47.5901 21.6255L49.0491 23.0755L50.5082 21.6255L49.0491 20.1755Z" fill="white"/>
<path d="M8.95074 20.1176L7.4917 21.5676L8.95074 23.0177L10.4098 21.5676L8.95074 20.1176Z" fill="white"/>
</g>
<defs>
<clipPath id="clip0">
<rect width="58" height="44" fill="white"/>
</clipPath>
</defs>
</svg>
