<svg width="53" height="53" viewBox="0 0 53 53" fill="none" xmlns="http://www.w3.org/2000/svg">
<path d="M37.5205 26.5231C37.5205 32.6225 32.5763 37.5667 26.4769 37.5667C20.3775 37.5667 15.4333 32.6225 15.4333 26.5231C15.4333 20.4237 20.3775 15.4795 26.4769 15.4795C32.5763 15.4795 37.5205 20.4237 37.5205 26.5231Z" fill="#275286"/>
<path d="M27.2624 32.2066H25.6913C24.8134 32.2066 23.9354 31.837 23.2885 31.2363C22.6416 30.5894 22.3182 29.7576 22.3182 28.8335H24.4899C24.4899 29.157 24.6286 29.4804 24.8596 29.7114C25.0906 29.9425 25.4141 30.0811 25.7375 30.0811H27.2624C27.5858 30.0811 27.9093 29.9425 28.1403 29.7114C28.3714 29.4804 28.4638 29.157 28.4638 28.8335C28.4638 28.51 28.3252 28.1866 28.0941 27.9556C27.8631 27.7245 27.5396 27.5859 27.2162 27.5859H25.6451C24.7672 27.5859 23.8892 27.2162 23.2423 26.6155C22.5954 25.9686 22.272 25.1369 22.272 24.2127C22.272 23.3348 22.5954 22.4569 23.2423 21.8562C23.8892 21.2093 24.721 20.8396 25.6451 20.8396H27.2624C28.1403 20.8396 29.0183 21.2093 29.619 21.81C30.2659 22.4569 30.5893 23.2886 30.5893 24.2127H28.4638C28.4638 23.9817 28.4176 23.6121 28.0941 23.3348C27.8631 23.1038 27.5396 22.9651 27.2162 22.9651H25.6451C25.3217 22.9651 24.9982 23.1038 24.7672 23.3348C24.5361 23.5658 24.3975 23.8893 24.3975 24.2127C24.3975 24.5362 24.5361 24.8597 24.7672 25.0907C24.9982 25.3217 25.3217 25.4603 25.6451 25.4603H27.2624C28.1403 25.4603 29.0183 25.83 29.6652 26.4307C30.3121 27.0776 30.6355 27.9093 30.6355 28.8335C30.6355 29.7576 30.3121 30.5894 29.6652 31.2363C29.0183 31.837 28.1403 32.2066 27.2624 32.2066Z" fill="white"/>
<path d="M27.5858 19.4995H25.4603V21.8561H27.5858V19.4995Z" fill="white"/>
<path d="M27.5858 31.1438H25.4603V33.5004H27.5858V31.1438Z" fill="white"/>
<path d="M44.4978 45.9764L37.7053 39.1839L38.4446 38.4446C41.633 35.2563 43.3888 31.0052 43.3888 26.4768V25.4141H53V26.4768C53 33.5466 50.2276 40.2005 45.2371 45.2371L44.4978 45.9764ZM40.6626 39.1839L44.4516 42.9729C48.333 38.7218 50.5972 33.3155 50.8283 27.5396H45.5144C45.2834 31.8831 43.5737 35.9494 40.6626 39.1839Z" fill="#242D3C"/>
<path d="M19.0375 11.2746L15.3871 2.449L16.3574 2.03313C19.5458 0.693112 22.9651 0 26.4769 0H27.5397V9.61116H26.4769C24.2589 9.61116 22.0872 10.027 20.0078 10.905L19.0375 11.2746ZM18.1595 3.60419L20.1927 8.54839C21.8561 7.94769 23.612 7.62424 25.4141 7.48562V2.12555C22.9189 2.26417 20.4699 2.72624 18.1595 3.60419Z" fill="#242D3C"/>
<path d="M42.5571 21.2092H52.4455C50.3662 10.8125 42.1875 2.63378 31.7908 0.554443V10.4891C36.8736 12.1063 40.8936 16.1264 42.5571 21.2092Z" fill="#275286"/>
<path d="M34.1011 41.5867C31.7908 42.7419 29.2031 43.3888 26.4769 43.3888C17.143 43.3888 9.56495 35.8108 9.56495 26.4769C9.56495 21.4403 11.7829 16.8195 15.4333 13.6774L11.6905 4.52832C4.43592 9.38011 0 17.5588 0 26.5231C0 41.1247 11.8753 53 26.4769 53C31.7446 53 36.7812 51.4751 41.1247 48.6103L34.1011 41.5867Z" fill="#275286"/>
</svg>
