<svg width="59" height="36" viewBox="0 0 59 36" fill="none" xmlns="http://www.w3.org/2000/svg">
<path d="M48.0789 13.9609H43.0752V21.6878H54.7795L48.0789 13.9609Z" fill="#275286"/>
<path d="M11.1386 31.1708H5.13416V20.3269H7.13563V29.1513H11.1386V31.1708Z" fill="#242D3C"/>
<path d="M40.8562 31.1707H20.7109V29.1512H38.8547V2.01951H2.69763V0H40.8562V31.1707Z" fill="#242D3C"/>
<path d="M7.13563 1.00977H5.13416V6.36586H7.13563V1.00977Z" fill="#242D3C"/>
<path d="M8.6151 24.1902H6.13501V26.2097H8.6151V24.1902Z" fill="#242D3C"/>
<path d="M35.896 24.1902H33.9816V26.2097H35.896V24.1902Z" fill="#242D3C"/>
<path d="M32.0236 24.1902H30.1091V26.2097H32.0236V24.1902Z" fill="#242D3C"/>
<path d="M28.1947 24.1902H26.2803V26.2097H28.1947V24.1902Z" fill="#242D3C"/>
<path d="M57.9993 24.1902H55.5192V26.2097H57.9993V24.1902Z" fill="#242D3C"/>
<path d="M35.896 5.04883H10.1379V21.6879H35.896V5.04883Z" fill="#275286"/>
<path d="M59 31.1707H53.6918V29.1512H56.9985V20.8536L49.0361 11.7219H40.8562V29.1512H44.163V31.1707H38.8547V9.70239H49.9499L59 20.0634V31.1707Z" fill="#242D3C"/>
<path d="M20.6852 30.1897C20.6985 27.5225 18.5665 25.3495 15.9232 25.336C13.2799 25.3226 11.1262 27.4738 11.1129 30.1409C11.0996 32.8081 13.2316 34.9811 15.8749 34.9946C18.5182 35.008 20.6718 32.8568 20.6852 30.1897Z" fill="#275286"/>
<path d="M15.9248 36.0001C12.7486 36.0001 10.1379 33.3659 10.1379 30.161C10.1379 26.9562 12.7486 24.322 15.9248 24.322C19.1011 24.322 21.7117 26.9562 21.7117 30.161C21.7117 33.4098 19.1011 36.0001 15.9248 36.0001ZM15.9248 26.3415C13.8363 26.3415 12.1394 28.0537 12.1394 30.161C12.1394 32.2684 13.8363 33.9806 15.9248 33.9806C18.0133 33.9806 19.7102 32.2684 19.7102 30.161C19.7102 28.0537 18.0133 26.3415 15.9248 26.3415Z" fill="#242D3C"/>
<path d="M16.882 29.1514H14.9675V31.1709H16.882V29.1514Z" fill="white"/>
<path d="M53.6918 30.1611C53.6918 32.8391 51.5598 34.9903 48.9056 34.9903C46.2515 34.9903 44.1195 32.8391 44.1195 30.1611C44.1195 27.483 46.2515 25.3318 48.9056 25.3318C51.5598 25.3318 53.6918 27.5269 53.6918 30.1611Z" fill="#275286"/>
<path d="M48.9056 36.0001C45.7294 36.0001 43.1188 33.3659 43.1188 30.161C43.1188 26.9562 45.7294 24.322 48.9056 24.322C52.0819 24.322 54.6925 26.9562 54.6925 30.161C54.6925 33.4098 52.1254 36.0001 48.9056 36.0001ZM48.9056 26.3415C46.8172 26.3415 45.1202 28.0537 45.1202 30.161C45.1202 32.2684 46.8172 33.9806 48.9056 33.9806C50.9941 33.9806 52.691 32.2684 52.691 30.161C52.691 28.0537 50.9941 26.3415 48.9056 26.3415Z" fill="#242D3C"/>
<path d="M49.8628 29.1514H47.9484V31.1709H49.8628V29.1514Z" fill="white"/>
<path d="M15.7507 8.47314H0V10.4927H15.7507V8.47314Z" fill="#242D3C"/>
<path d="M14.9675 16.2H7.09216V18.2195H14.9675V16.2Z" fill="#242D3C"/>
<path d="M19.101 12.3367H3.43726V14.3562H19.101V12.3367Z" fill="#242D3C"/>
<path d="M3.48086 24.1902H1.56641V26.2097H3.48086V24.1902Z" fill="#242D3C"/>
<path d="M21.7987 8.47314H19.8843V10.4927H21.7987V8.47314Z" fill="#242D3C"/>
<path d="M5.17775 16.2H0.783203V18.2195H5.17775V16.2Z" fill="#242D3C"/>
</svg>
