<svg width="48" height="46" viewBox="0 0 48 46" fill="none" xmlns="http://www.w3.org/2000/svg">
<path d="M31.424 9.78345H14.9185V42.727H31.424V9.78345Z" fill="#275286"/>
<path d="M19.1154 12.4163H17.493V14.0528H19.1154V12.4163Z" fill="white"/>
<path d="M22.3601 12.4163H20.7378V14.0528H22.3601V12.4163Z" fill="white"/>
<path d="M25.6048 12.4163H23.9824V14.0528H25.6048V12.4163Z" fill="white"/>
<path d="M28.8494 12.4163H27.2271V14.0528H28.8494V12.4163Z" fill="white"/>
<path d="M19.1154 15.6536H17.493V17.2901H19.1154V15.6536Z" fill="white"/>
<path d="M22.3601 15.6536H20.7378V17.2901H22.3601V15.6536Z" fill="white"/>
<path d="M25.6048 15.6536H23.9824V17.2901H25.6048V15.6536Z" fill="white"/>
<path d="M28.8494 15.6536H27.2271V17.2901H28.8494V15.6536Z" fill="white"/>
<path d="M19.1154 18.9268H17.493V20.5633H19.1154V18.9268Z" fill="white"/>
<path d="M22.3601 18.9268H20.7378V20.5633H22.3601V18.9268Z" fill="white"/>
<path d="M25.6048 18.9268H23.9824V20.5633H25.6048V18.9268Z" fill="white"/>
<path d="M28.8494 18.9268H27.2271V20.5633H28.8494V18.9268Z" fill="white"/>
<path d="M19.1154 22.1997H17.493V23.8362H19.1154V22.1997Z" fill="white"/>
<path d="M22.3601 22.1997H20.7378V23.8362H22.3601V22.1997Z" fill="white"/>
<path d="M25.6048 22.1997H23.9824V23.8362H25.6048V22.1997Z" fill="white"/>
<path d="M28.8494 22.1997H27.2271V23.8362H28.8494V22.1997Z" fill="white"/>
<path d="M19.1154 25.437H17.493V27.0735H19.1154V25.437Z" fill="white"/>
<path d="M22.3601 25.437H20.7378V27.0735H22.3601V25.437Z" fill="white"/>
<path d="M25.6048 25.437H23.9824V27.0735H25.6048V25.437Z" fill="white"/>
<path d="M28.8494 25.437H27.2271V27.0735H28.8494V25.437Z" fill="white"/>
<path d="M19.1154 28.7102H17.493V30.3467H19.1154V28.7102Z" fill="white"/>
<path d="M22.3601 28.7102H20.7378V30.3467H22.3601V28.7102Z" fill="white"/>
<path d="M25.6048 28.7102H23.9824V30.3467H25.6048V28.7102Z" fill="white"/>
<path d="M28.8494 28.7102H27.2271V30.3467H28.8494V28.7102Z" fill="white"/>
<path d="M19.1154 31.9832H17.493V33.6197H19.1154V31.9832Z" fill="white"/>
<path d="M22.3601 31.9832H20.7378V33.6197H22.3601V31.9832Z" fill="white"/>
<path d="M25.6048 31.9832H23.9824V33.6197H25.6048V31.9832Z" fill="white"/>
<path d="M28.8494 31.9832H27.2271V33.6197H28.8494V31.9832Z" fill="white"/>
<path d="M19.1154 35.2561H17.493V36.8926H19.1154V35.2561Z" fill="white"/>
<path d="M22.3601 35.2561H20.7378V36.8926H22.3601V35.2561Z" fill="white"/>
<path d="M25.6048 35.2561H23.9824V36.8926H25.6048V35.2561Z" fill="white"/>
<path d="M28.8494 35.2561H27.2271V36.8926H28.8494V35.2561Z" fill="white"/>
<path d="M19.1154 38.4937H17.493V40.1302H19.1154V38.4937Z" fill="white"/>
<path d="M22.3601 38.4937H20.7378V40.1302H22.3601V38.4937Z" fill="white"/>
<path d="M25.6048 38.4937H23.9824V40.1302H25.6048V38.4937Z" fill="white"/>
<path d="M28.8494 38.4937H27.2271V40.1302H28.8494V38.4937Z" fill="white"/>
<path d="M32.2351 43.581H14.1073V8.96533H32.2351V43.581ZM15.7296 41.9445H30.6128V10.6018H15.7296V41.9445Z" fill="#242D3C"/>
<path d="M29.8016 10.6017H16.5408V5.72778H29.8016V10.6017ZM18.1631 8.96522H28.1793V7.32871H18.1631V8.96522Z" fill="#242D3C"/>
<path d="M27.3681 7.32877H18.9742V2.45483H27.3681V7.32877ZM20.5966 5.72784H25.7457V4.09134H20.5966V5.72784Z" fill="#242D3C"/>
<path d="M23.9823 0H22.36V3.27301H23.9823V0Z" fill="#242D3C"/>
<path d="M35.6209 16.4719H33.9985V39.3118H35.6209V16.4719Z" fill="#242D3C"/>
<path d="M38.8303 16.4719H37.208V39.3118H38.8303V16.4719Z" fill="#242D3C"/>
<path d="M42.0397 16.4719H40.4174V39.3118H42.0397V16.4719Z" fill="#242D3C"/>
<path d="M45.4254 43.5809H30.6128V12.2383H45.4254V43.5809ZM32.2351 41.9444H43.8031V13.8748H32.2351V41.9444Z" fill="#242D3C"/>
<path d="M42.0397 13.8748H33.9985V8.96533H42.0044V13.8748H42.0397ZM35.6209 12.2383H40.4173V10.6018H35.6209V12.2383Z" fill="#242D3C"/>
<path d="M9.09914 25.437H7.47681V27.0735H9.09914V25.437Z" fill="#242D3C"/>
<path d="M12.3439 25.437H10.7216V27.0735H12.3439V25.437Z" fill="#242D3C"/>
<path d="M9.09914 28.71H7.47681V30.3465H9.09914V28.71Z" fill="#242D3C"/>
<path d="M12.3439 28.71H10.7216V30.3465H12.3439V28.71Z" fill="#242D3C"/>
<path d="M9.09914 31.9832H7.47681V33.6197H9.09914V31.9832Z" fill="#242D3C"/>
<path d="M12.3439 31.9832H10.7216V33.6197H12.3439V31.9832Z" fill="#242D3C"/>
<path d="M9.09914 35.2559H7.47681V36.8924H9.09914V35.2559Z" fill="#242D3C"/>
<path d="M12.3439 35.2559H10.7216V36.8924H12.3439V35.2559Z" fill="#242D3C"/>
<path d="M9.09914 38.4934H7.47681V40.1299H9.09914V38.4934Z" fill="#242D3C"/>
<path d="M12.3439 38.4934H10.7216V40.1299H12.3439V38.4934Z" fill="#242D3C"/>
<path d="M15.7296 43.5809H4.09106V22.0217H15.7296V43.5809ZM5.7134 41.9444H14.1072V23.6582H5.7134V41.9444Z" fill="#242D3C"/>
<path d="M48.0001 46H46.3777V43.5808H3.10366V46H1.48132V41.9443H48.0001V46Z" fill="#242D3C"/>
<path d="M4.23218 12.4158H0V14.0523H4.23218V12.4158Z" fill="#242D3C"/>
<path d="M34.8097 0.818115H30.5775V2.45462H34.8097V0.818115Z" fill="#242D3C"/>
<path d="M9.06395 5.72754H3.06836V7.36404H9.06395V5.72754Z" fill="#242D3C"/>
<path d="M13.1198 5.72754H10.7568V7.36404H13.1198V5.72754Z" fill="#242D3C"/>
</svg>
