<svg width="35" height="47" viewBox="0 0 35 47" fill="none" xmlns="http://www.w3.org/2000/svg">
<g clip-path="url(#clip0)">
<path d="M21.0932 0H13.9456V3.48991H21.0932V0Z" fill="#275286"/>
<path d="M21.0932 37.251H13.9456V47H21.0932V37.251Z" fill="#275286"/>
<path d="M21.0932 13.9216H13.9456V23.3292H21.0932V13.9216Z" fill="#275286"/>
<path d="M25.677 3.48999H23.8901V13.9218H25.677V3.48999Z" fill="#242D3C"/>
<path d="M30.9989 3.48999H29.212V13.9218H30.9989V3.48999Z" fill="#242D3C"/>
<path d="M35 14.7942H29.212V13.9217C29.212 12.9734 28.3962 12.1768 27.4251 12.1768C26.4539 12.1768 25.6382 12.9734 25.6382 13.9217V14.7942H0V7.81436H4.89456C7.34184 7.81436 9.36182 5.87974 9.36182 3.45198V2.61743H25.677V3.48991C25.677 4.43825 26.4928 5.23486 27.4639 5.23486C28.4351 5.23486 29.2508 4.43825 29.2508 3.48991V2.61743H35.0388V14.7942H35ZM30.8824 13.0492H33.2131V4.36239H30.8824C30.4939 5.87974 29.0954 6.97982 27.4251 6.97982C25.7547 6.97982 24.3563 5.87974 23.9678 4.36239H11.071C10.6437 7.32122 8.04107 9.59725 4.89456 9.59725H1.7869V13.0872H24.0067C24.3951 11.5698 25.7936 10.4697 27.4639 10.4697C29.1343 10.4697 30.4939 11.5698 30.8824 13.0492Z" fill="#242D3C"/>
<path d="M21.0544 38.1235H13.9456C13.2464 38.1235 12.5472 37.858 12.0422 37.3649C11.5372 36.8717 11.2653 36.2269 11.2653 35.5061C11.2653 34.8233 11.5372 34.1405 12.0422 33.6473C12.5472 33.1542 13.2075 32.8887 13.9456 32.8887H21.0932C21.7925 32.8887 22.4917 33.1542 22.9967 33.6473C23.5017 34.1405 23.7736 34.7854 23.7736 35.5061C23.7736 36.1889 23.5017 36.8717 22.9967 37.3649C22.4528 37.858 21.7925 38.1235 21.0544 38.1235ZM13.9456 34.6336C13.7125 34.6336 13.4795 34.7095 13.3241 34.8992C13.1687 35.0509 13.0522 35.2785 13.0522 35.5061C13.0522 35.7337 13.1299 35.9613 13.3241 36.113C13.4795 36.2648 13.7125 36.3786 13.9456 36.3786H21.0932C21.3263 36.3786 21.5594 36.3027 21.7148 36.113C21.8701 35.9613 21.9867 35.7337 21.9867 35.5061C21.9867 35.2785 21.909 35.0509 21.7148 34.8992C21.5205 34.7474 21.3263 34.6336 21.0932 34.6336H13.9456Z" fill="#242D3C"/>
<path d="M21.0544 34.6335H13.9456V32.8886H21.0932C21.3263 32.8886 21.5594 32.8127 21.7148 32.6231C21.8701 32.4713 21.9867 32.2437 21.9867 32.0161C21.9867 31.7885 21.909 31.5609 21.7148 31.4092C21.5594 31.2574 21.3263 31.1436 21.0932 31.1436H15.7325V29.3987H21.0932C21.7925 29.3987 22.4917 29.6642 22.9967 30.1574C23.5017 30.6505 23.7736 31.2954 23.7736 32.0161C23.7736 32.7369 23.5017 33.3817 22.9967 33.8749C22.4528 34.368 21.7925 34.6335 21.0544 34.6335Z" fill="#242D3C"/>
<path d="M21.0544 31.1436H15.7325V29.3986H21.0933C21.3263 29.3986 21.5594 29.3227 21.7148 29.1331C21.8702 28.9813 21.9867 28.7537 21.9867 28.5261C21.9867 28.2985 21.909 28.0709 21.7148 27.9192C21.5206 27.7674 21.3263 27.6536 21.0933 27.6536H15.7325V25.9087H21.0933C21.7925 25.9087 22.4917 26.1742 22.9967 26.6674C23.5017 27.1605 23.7736 27.8054 23.7736 28.5261C23.7736 29.2469 23.5017 29.8917 22.9967 30.3849C22.4529 30.878 21.7925 31.1436 21.0544 31.1436Z" fill="#242D3C"/>
<path d="M21.0544 27.6917H15.7325V25.9467H21.0932C21.3263 25.9467 21.5594 25.8708 21.7148 25.6812C21.8701 25.5294 21.9867 25.3018 21.9867 25.0742C21.9867 24.8466 21.909 24.619 21.7148 24.4673C21.5594 24.3155 21.3263 24.2017 21.0932 24.2017H13.9456V22.4568H21.0932C21.7925 22.4568 22.4917 22.7223 22.9967 23.2155C23.5017 23.7086 23.7736 24.3535 23.7736 25.0742C23.7736 25.757 23.5017 26.4398 22.9967 26.933C22.4528 27.3882 21.7925 27.6917 21.0544 27.6917Z" fill="#242D3C"/>
<path d="M5.04994 34.6336V32.8886C8.50721 32.8886 11.3041 30.1574 11.3041 26.7812H13.091V30.2712C13.091 30.4988 13.1687 30.7264 13.3629 30.8781C13.5183 31.0298 13.7514 31.1436 13.9845 31.1436H14.8779V25.0742C14.8779 24.8466 14.8002 24.619 14.606 24.4673C14.4506 24.3155 14.2175 24.2017 13.9845 24.2017H8.58491C7.18646 24.2017 5.90455 24.7328 4.93341 25.6812C3.61265 26.9709 1.86459 27.6917 0 27.6917V25.9467C1.39845 25.9467 2.68036 25.4156 3.6515 24.4673C4.97225 23.1775 6.72031 22.4568 8.58491 22.4568H13.9456C14.6448 22.4568 15.3441 22.7223 15.8491 23.2155C16.3541 23.7086 16.626 24.3535 16.626 25.0742V32.8886H13.9456C13.2464 32.8886 12.5472 32.6231 12.0422 32.1299C11.8091 31.9023 11.6537 31.6747 11.4983 31.4092C10.061 33.3438 7.69145 34.6336 5.04994 34.6336Z" fill="#242D3C"/>
<path d="M13.9456 36.3784H0V38.1234H13.9456V36.3784Z" fill="#242D3C"/>
</g>
<defs>
<clipPath id="clip0">
<rect width="35" height="47" fill="white"/>
</clipPath>
</defs>
</svg>
