<svg width="32" height="56" viewBox="0 0 32 56" fill="none" xmlns="http://www.w3.org/2000/svg">
<g clip-path="url(#clip0)">
<path d="M11.4225 19.5509L14.2888 26.0536H17.7113L20.5776 19.5509L16 16.4707L11.4225 19.5509Z" fill="#275286"/>
<path d="M17.7113 26.0537H14.2888L8.25671 46.9735L16 56.0002L23.7433 46.9735L17.7113 26.0537Z" fill="#275286"/>
<path d="M25.754 4.83423H6.24597V6.80214H25.754V4.83423Z" fill="#242D3C"/>
<path d="M3.02472 0.313783L1.55115 1.61792L15.2729 17.1225L16.7465 15.8183L3.02472 0.313783Z" fill="#242D3C"/>
<path d="M27.0802 25.1551L16 17.6685L4.91979 25.1551L0 5.81818L1.54011 0H30.4599L32 5.81818L27.0802 25.1551ZM2.01069 5.81818L6.11765 21.9465L16 15.2727L25.8824 21.9465L29.9465 5.81818L28.9198 1.96791H3.03743L2.01069 5.81818Z" fill="#242D3C"/>
<path d="M28.9696 0.328326L15.2478 15.835L16.7216 17.1391L30.4434 1.63246L28.9696 0.328326Z" fill="#242D3C"/>
</g>
<defs>
<clipPath id="clip0">
<rect width="32" height="56" fill="white"/>
</clipPath>
</defs>
</svg>
