<svg width="46" height="44" viewBox="0 0 46 44" fill="none" xmlns="http://www.w3.org/2000/svg">
<path d="M37.8998 39.9898H27.0129V33.5435C27.0129 32.7939 27.1615 32.0443 27.4588 31.3322C27.756 30.6201 28.1647 30.0205 28.6849 29.4583L35.819 22.2624C36.4507 21.6253 37.2681 21.288 38.1227 21.288C39.0145 21.288 39.8319 21.6253 40.4265 22.2624C41.0581 22.8995 41.3925 23.7241 41.3925 24.5861C41.3925 25.4481 41.0581 26.3101 40.4265 26.9098L35.1874 32.2692C34.5557 32.9063 33.7382 33.2437 32.8836 33.2437V31.5196C33.2924 31.5196 33.7011 31.3697 33.9983 31.0699L39.2746 25.7479C39.5718 25.4481 39.7205 25.0358 39.7205 24.6236C39.7205 24.2113 39.5718 23.799 39.2746 23.4992C38.9773 23.1994 38.5686 23.0494 38.1599 23.0494C37.7512 23.0494 37.3424 23.1994 37.0452 23.4992L29.8739 30.7326C29.5024 31.1074 29.2051 31.5571 29.0193 32.0443C28.8336 32.5316 28.7221 33.0563 28.7221 33.581V38.2658H36.2649C36.3392 37.4787 36.525 36.7292 36.8222 35.9796C37.231 34.9677 37.8255 34.1057 38.5686 33.3186L43.8449 27.9966C43.9935 27.8467 44.105 27.6593 44.1793 27.4719C44.2536 27.2845 44.2907 27.0597 44.2907 26.8723V13.0052C44.2907 12.5929 44.1421 12.1806 43.8449 11.8808C43.5476 11.581 43.1389 11.4311 42.7302 11.4311C42.3214 11.4311 41.9127 11.581 41.6155 11.8808C41.3182 12.1806 41.1696 12.5929 41.1696 13.0052V19.9762H39.4604V13.0052C39.4604 12.1057 39.7948 11.2811 40.4265 10.6815C41.0581 10.0443 41.8756 9.70703 42.7302 9.70703C43.6219 9.70703 44.4394 10.0443 45.0339 10.6815C45.6655 11.3186 46 12.1431 46 13.0052V26.8723C46 27.322 45.9256 27.7343 45.7399 28.1466C45.5912 28.5588 45.3311 28.8961 45.0339 29.2334L39.7576 34.5554C39.1631 35.1551 38.6801 35.8672 38.3828 36.6542C38.0484 37.4413 37.8998 38.2658 37.8998 39.1278V39.9898Z" fill="#242D3C"/>
<path d="M39.0888 39.1277H25.7867V43.9999H39.0888V39.1277Z" fill="#275286"/>
<path d="M39.9806 44.0001H38.2714V39.9899H26.6413V44.0001H24.9321V38.2659H39.9806V44.0001Z" fill="#242D3C"/>
<path d="M18.9871 39.9897H8.10016V39.1277C8.10016 38.2657 7.95153 37.4411 7.61712 36.6541C7.28271 35.867 6.83683 35.1549 6.24233 34.5553L0.966074 29.2333C0.668821 28.9335 0.408724 28.5587 0.260097 28.1464C0.0743134 27.7716 0 27.3219 0 26.9096V13.0425C0 12.1805 0.33441 11.3185 0.966074 10.7188C1.59774 10.0817 2.41519 9.74438 3.26979 9.74438C4.16155 9.74438 4.979 10.0817 5.57351 10.7188C6.20517 11.356 6.53958 12.1805 6.53958 13.0425V20.0135H4.83037V13.005C4.83037 12.5928 4.68174 12.1805 4.38449 11.8807C4.08724 11.5808 3.67851 11.4309 3.26979 11.4309C2.86107 11.4309 2.45234 11.5808 2.15509 11.8807C1.85784 12.1805 1.70921 12.5928 1.70921 13.005V26.8722C1.70921 27.097 1.74636 27.2844 1.82068 27.4718C1.89499 27.6592 2.00646 27.8466 2.15509 27.9965L7.43134 33.3185C8.17447 34.0681 8.76898 34.9676 9.17771 35.9795C9.47496 36.729 9.66074 37.4786 9.73506 38.2657H17.2779V33.5434C17.2779 33.0187 17.1664 32.494 16.9806 32.0067C16.7948 31.5195 16.4976 31.0698 16.126 30.695L8.99192 23.4991C8.69467 23.1992 8.28594 23.0493 7.87722 23.0493C7.4685 23.0493 7.05977 23.1992 6.76252 23.4991C6.46527 23.7989 6.31664 24.2112 6.31664 24.6234C6.31664 25.0357 6.46527 25.448 6.76252 25.7478L12.0388 31.0698C12.336 31.3696 12.7447 31.5195 13.1535 31.5195V33.2435C12.2617 33.2435 11.4443 32.9062 10.8498 32.2691L5.57351 26.9846C4.94184 26.3474 4.60743 25.5229 4.60743 24.6609C4.60743 23.7614 4.94184 22.9369 5.57351 22.3372C6.20517 21.7001 7.02262 21.3628 7.87722 21.3628C8.76898 21.3628 9.58643 21.7001 10.1809 22.3372L17.315 29.5331C17.8352 30.0578 18.2439 30.695 18.5412 31.4071C18.8384 32.1192 18.9871 32.8313 18.9871 33.6183V39.9897Z" fill="#242D3C"/>
<path d="M20.2132 39.1277H6.91113V43.9999H20.2132V39.1277Z" fill="#275286"/>
<path d="M21.0678 43.9999H19.3586V39.9896H7.76573V43.9999H6.05652V38.2656H21.0678V43.9999Z" fill="#242D3C"/>
<path d="M20.3619 10.1567C22.4055 8.0954 22.4055 4.7598 20.3619 2.69847C19.5073 1.83646 18.4298 1.38671 17.3522 1.19932C10.3296 0 10.3296 0 10.3296 0C10.3296 0 10.3296 0 11.5186 7.08348C11.7044 8.20784 12.1503 9.25724 13.0049 10.1193C15.0113 12.2181 18.3183 12.2181 20.3619 10.1567Z" fill="#275286"/>
<path d="M25.6381 10.1567C23.5945 8.0954 23.5945 4.7598 25.6381 2.69847C26.4927 1.83646 27.5703 1.38671 28.6478 1.19932C35.7076 0 35.7076 0 35.7076 0C35.7076 0 35.7076 0 34.5186 7.08348C34.3328 8.20784 33.8869 9.25724 33.0323 10.1193C30.9887 12.2181 27.6817 12.2181 25.6381 10.1567Z" fill="#275286"/>
<path d="M23.8546 12.7803H22.1454V29.046H23.8546V12.7803Z" fill="#242D3C"/>
<path d="M23 14.0172L16.0889 7.00865L17.2779 5.80933L23 11.581L28.7221 5.80933L29.9483 7.00865L23 14.0172Z" fill="#242D3C"/>
</svg>
