<svg width="11" height="13" viewBox="0 0 11 13" fill="none" xmlns="http://www.w3.org/2000/svg">
<g clip-path="url(#clip0)">
<path d="M5.52683 13C5.41951 13 5.25854 12.9465 5.20488 12.893C4.61463 12.4115 0 8.39918 0 5.51029C0 2.46091 2.46829 0 5.52683 0C8.58537 0 11.0537 2.46091 11.0537 5.51029C11.0537 8.39918 6.43902 12.4115 5.90244 12.893C5.74146 12.9465 5.63415 13 5.52683 13ZM5.52683 1.06996C3.05854 1.06996 1.07317 3.04938 1.07317 5.51029C1.07317 7.38272 4.02439 10.4321 5.52683 11.7695C7.02927 10.4321 9.98049 7.38272 9.98049 5.51029C9.92683 3.04938 7.94146 1.06996 5.52683 1.06996Z" fill="white"/>
<path d="M5.52668 8.18524C4.02424 8.18524 2.84375 7.00829 2.84375 5.51035C2.84375 4.0124 4.02424 2.83545 5.52668 2.83545C7.02912 2.83545 8.2096 4.0124 8.2096 5.51035C8.2096 6.95479 6.97546 8.18524 5.52668 8.18524ZM5.52668 3.90541C4.61448 3.90541 3.91692 4.60088 3.91692 5.51035C3.91692 6.41981 4.61448 7.11528 5.52668 7.11528C6.43887 7.11528 7.13643 6.41981 7.13643 5.51035C7.13643 4.60088 6.38521 3.90541 5.52668 3.90541Z" fill="white"/>
</g>
<defs>
<clipPath id="clip0">
<rect width="11" height="13" fill="white"/>
</clipPath>
</defs>
</svg>
