<svg width="23" height="23" viewBox="0 0 23 23" fill="none" xmlns="http://www.w3.org/2000/svg">
<g clip-path="url(#clip0)">
<path d="M11.5268 18C11.4195 18 11.2585 17.9465 11.2049 17.893C10.6146 17.4115 6 13.3992 6 10.5103C6 7.46091 8.46829 5 11.5268 5C14.5854 5 17.0537 7.46091 17.0537 10.5103C17.0537 13.3992 12.439 17.4115 11.9024 17.893C11.7415 17.9465 11.6341 18 11.5268 18ZM11.5268 6.06996C9.05854 6.06996 7.07317 8.04938 7.07317 10.5103C7.07317 12.3827 10.0244 15.4321 11.5268 16.7695C13.0293 15.4321 15.9805 12.3827 15.9805 10.5103C15.9268 8.04938 13.9415 6.06996 11.5268 6.06996Z" fill="#275286"/>
<path d="M11.5267 13.1853C10.0242 13.1853 8.84375 12.0083 8.84375 10.5104C8.84375 9.01243 10.0242 7.83548 11.5267 7.83548C13.0291 7.83548 14.2096 9.01243 14.2096 10.5104C14.2096 11.9548 12.9755 13.1853 11.5267 13.1853ZM11.5267 8.90544C10.6145 8.90544 9.91692 9.60091 9.91692 10.5104C9.91692 11.4198 10.6145 12.1153 11.5267 12.1153C12.4389 12.1153 13.1364 11.4198 13.1364 10.5104C13.1364 9.60091 12.3852 8.90544 11.5267 8.90544Z" fill="#275286"/>
</g>
<circle cx="11.5" cy="11.5" r="11" stroke="#275286"/>
<defs>
<clipPath id="clip0">
<rect width="11" height="13" fill="white" transform="translate(6 5)"/>
</clipPath>
</defs>
</svg>
