<svg width="98" height="36" viewBox="0 0 98 36" fill="none" xmlns="http://www.w3.org/2000/svg">
<g clip-path="url(#clip0)">
<path d="M54.7734 0.00416391C52.8379 0.00416391 50.8073 0.104094 50.4226 0.104094C50.2613 0.104094 48.2307 0.00416391 46.7791 0.00416391C46.4234 0.00416391 46.2621 0.0707843 46.2621 0.266482C46.2621 0.395559 46.3944 0.458015 46.5226 0.458015C46.8903 0.456887 47.2572 0.490343 47.6186 0.557946C48.6815 0.78279 48.9379 1.30326 49.0041 2.40666C49.033 2.89382 49.0496 3.34768 49.0578 4.21374C48.909 4.03886 48.7559 3.86398 48.6029 3.70576C44.7691 -0.2873 38.8674 0.00416391 35.6788 0.00416391C33.7433 0.00416391 31.7126 0.104094 31.3239 0.104094C31.1626 0.104094 29.1319 0.00416391 27.6844 0.00416391C27.3288 0.00416391 27.1675 0.0707843 27.1675 0.266482C27.1675 0.395559 27.2957 0.458015 27.4239 0.458015C27.7915 0.456716 28.1585 0.490174 28.5199 0.557946C29.5827 0.78279 29.8433 1.30326 29.9053 2.40666C29.9715 3.44761 29.9715 4.35531 29.9715 9.41846V15.1312C29.9715 18.2457 29.9715 20.8105 29.8102 22.1721C29.682 23.1131 29.5207 23.8376 28.8755 23.9584C28.5581 24.034 28.2338 24.0773 27.9078 24.0874C27.7134 24.0874 27.6514 24.1874 27.6514 24.2831C27.6514 24.4788 27.8127 24.5413 28.1683 24.5413C28.6481 24.5413 29.409 24.4788 30.0377 24.4788C30.6663 24.4788 31.2784 24.4455 31.3239 24.4455C31.4852 24.4455 32.5646 24.5413 33.9997 24.6412C35.4348 24.7412 37.0973 24.8328 38.4828 24.8328C43.9626 24.8328 46.8659 22.5635 48.2514 21.0854C48.5328 20.7983 48.7993 20.4967 49.0496 20.1818C49.0248 20.9896 48.9875 21.6641 48.9296 22.1721C48.7973 23.1131 48.636 23.8376 47.995 23.9584C47.6775 24.0337 47.3533 24.077 47.0272 24.0874C46.8328 24.0874 46.7667 24.1874 46.7667 24.2831C46.7667 24.4788 46.9279 24.5413 47.2836 24.5413C47.7675 24.5413 48.5243 24.4788 49.153 24.4788C49.7816 24.4788 50.3937 24.4455 50.4433 24.4455C50.6046 24.4455 51.684 24.5413 53.1191 24.6412C54.5542 24.7412 56.2126 24.8328 57.5981 24.8328C63.0821 24.8328 65.9812 22.5635 67.3667 21.0854C69.6479 18.5924 70.894 15.3144 70.849 11.9251C70.849 8.06107 69.3353 5.36711 67.7223 3.68078C63.8637 -0.2873 57.9662 0.00416391 54.7734 0.00416391ZM33.0898 20.0694C33.0729 19.6164 33.1744 19.1668 33.3841 18.7657C33.5939 18.3646 33.9045 18.0259 34.2851 17.7835C34.7837 18.4426 35.3194 19.0724 35.8897 19.6697C36.2413 20.0444 37.5854 21.3352 38.3463 21.9431C38.0157 22.2792 37.6212 22.5446 37.1862 22.7234C36.7513 22.9023 36.285 22.9909 35.8153 22.984C34.2975 22.984 33.1022 21.7849 33.0898 20.0694ZM36.2288 23.6169C37.1833 23.427 38.0526 22.9355 38.7103 22.2137C39.9799 23.2089 40.4059 23.4212 41.1214 23.4629C40.2898 23.6442 39.4412 23.7349 38.5903 23.7335C37.8017 23.7367 37.0134 23.6978 36.2288 23.6169ZM46.2704 20.7023C45.1371 21.8244 43.7571 22.6618 42.2422 23.1464C41.9069 23.047 41.5847 22.9072 41.2827 22.7301C40.6172 22.351 39.991 21.9061 39.4133 21.4018C40.0006 20.6648 40.7285 19.2908 40.7202 18.1915C40.7202 18.0541 40.6789 17.9459 40.4762 17.9209C39.9391 17.8644 39.3992 17.838 38.8592 17.8418C38.7516 17.8418 38.6441 17.8709 38.6441 17.9375C38.6441 18.0042 38.7268 18.0333 38.8054 18.0291C39.0446 18.0138 39.2808 18.0896 39.4671 18.2415C39.5524 18.3286 39.6195 18.4321 39.6642 18.5459C39.709 18.6596 39.7306 18.7812 39.7277 18.9035C39.7268 19.706 39.4955 20.4912 39.0618 21.1645C38.6482 20.7981 36.9567 19.2533 36.4935 18.7536C35.0791 17.2339 34.3471 16.3595 34.3388 15.2977C34.3214 15.0652 34.3526 14.8315 34.4305 14.6119C34.5084 14.3923 34.6313 14.1916 34.7911 14.0228C34.951 13.854 35.1442 13.7209 35.3584 13.6321C35.5726 13.5433 35.8029 13.5008 36.0345 13.5073C36.2876 13.5079 36.538 13.5602 36.7705 13.6611C37.003 13.762 37.2127 13.9094 37.3868 14.0944C37.6689 14.4081 37.8174 14.8208 37.8004 15.2436C37.8004 15.4476 37.8004 15.5017 37.8831 15.5017C37.9658 15.5017 37.9783 15.4726 38.0155 15.2686C38.0714 14.75 38.099 14.2288 38.0982 13.7071C38.1098 13.639 38.0986 13.569 38.0664 13.508C38.0343 13.4469 37.9829 13.3984 37.9204 13.3699C37.4093 13.1321 36.8492 13.0207 36.2867 13.0451C34.4836 13.0451 33.3917 14.4941 33.3917 15.5434C33.3962 16.2383 33.6387 16.9104 34.0783 17.4462C33.5481 17.7586 33.0844 18.1732 32.7135 18.6662C32.7135 17.3463 32.6804 15.2394 32.6804 12.9244V8.89799C32.6804 6.39972 32.6804 3.08952 32.7135 1.98612C32.6902 1.84894 32.7161 1.70791 32.7866 1.58818C32.857 1.46845 32.9674 1.3778 33.0981 1.33241C33.7851 1.17006 34.4893 1.09315 35.1949 1.1034C39.0287 1.1034 42.7054 1.55725 45.7369 4.77169C47.7866 6.98789 48.8965 9.92185 48.8304 12.9493C48.8304 15.9431 47.9288 19.0576 46.2497 20.7106L46.2704 20.7023ZM65.3691 20.7023C63.3075 22.688 60.55 23.773 57.6974 23.721C53.8925 23.721 52.6352 23.0423 52.2175 22.4261C51.957 22.068 51.8949 20.7606 51.8619 19.957C51.8288 19.3407 51.7957 16.3553 51.7957 12.916V8.89799C51.7957 6.39972 51.7957 3.08952 51.8288 1.98612C51.8054 1.85109 51.8293 1.71207 51.8964 1.59282C51.9635 1.47358 52.0697 1.38153 52.1969 1.33241C52.8825 1.17003 53.5853 1.09311 54.2895 1.1034C58.1275 1.1034 61.8041 1.55725 64.8315 4.77169C66.8846 6.98604 67.9963 9.92089 67.9291 12.9493C67.9291 15.9431 67.0234 19.0576 65.3484 20.7106L65.3691 20.7023Z" fill="white"/>
<path d="M6.29039 34.2262C6.22836 34.2262 6.21595 34.2554 6.19527 34.3553C6.13868 34.6345 6.01357 34.8951 5.83133 35.1131C5.45911 35.4879 5.00418 35.5295 4.2887 35.5295C3.85111 35.5383 3.41612 35.4596 3.00893 35.298C2.60174 35.1364 2.23046 34.8951 1.91657 34.588C1.60269 34.2808 1.35245 33.9141 1.18035 33.5089C1.00824 33.1038 0.917699 32.6683 0.913957 32.2276C0.913957 31.3074 1.06284 30.4913 1.7411 29.8501C2.07196 29.5378 2.64682 29.2172 3.85032 29.2172C4.50164 29.1814 5.14706 29.3581 5.69071 29.721C5.822 29.8331 5.92713 29.9729 5.99861 30.1305C6.0701 30.2881 6.10618 30.4596 6.10428 30.6329C6.10428 30.762 6.10428 30.8244 6.17873 30.8244C6.25317 30.8244 6.27385 30.7703 6.28212 30.6329C6.29039 30.4955 6.28212 30 6.30693 29.7002C6.33175 29.4004 6.34829 29.2588 6.34829 29.1839C6.34829 29.109 6.32761 29.0881 6.23249 29.0881C5.90976 29.066 5.58907 29.0201 5.27301 28.9507C4.82135 28.8808 4.36518 28.8446 3.90822 28.8425C2.47312 28.8425 1.62117 29.2588 1.05871 29.8168C0.396992 30.4792 0.0185478 31.3757 0.00409925 32.3151C-0.0175203 32.8222 0.0733322 33.3279 0.270058 33.7953C0.466785 34.2628 0.764445 34.6802 1.14142 35.0173C1.87758 35.6627 2.82466 35.9917 4.2308 35.9917C4.80179 36.0138 5.37266 35.9449 5.92231 35.7876C6.08361 35.7252 6.10428 35.6919 6.15805 35.5212C6.25623 35.1375 6.33081 34.7482 6.38138 34.3553C6.37724 34.297 6.33175 34.2262 6.29039 34.2262Z" fill="white"/>
<path d="M14.351 28.8633C13.8729 28.8449 13.396 28.9231 12.9484 29.0931C12.5007 29.2631 12.0914 29.5217 11.7446 29.8534C11.3977 30.1852 11.1203 30.5835 10.9287 31.0248C10.7371 31.4662 10.6351 31.9417 10.6288 32.4233C10.6165 32.9075 10.7042 33.3889 10.8865 33.8371C11.0688 34.2853 11.3417 34.6904 11.6879 35.0267C12.034 35.3631 12.4458 35.6233 12.8971 35.7908C13.3485 35.9584 13.8295 36.0296 14.3096 36C14.8026 36.0182 15.294 35.935 15.7539 35.7554C16.2139 35.5759 16.6326 35.3038 16.9844 34.9557C17.3363 34.6077 17.614 34.1911 17.8005 33.7313C17.987 33.2715 18.0783 32.7783 18.069 32.2818C18.0566 30.1582 16.4602 28.8633 14.351 28.8633ZM14.566 35.6253C12.8704 35.6253 11.6049 34.297 11.6049 32.1735C11.6049 30.1915 12.7339 29.2047 14.2972 29.2047C15.7778 29.2047 17.0971 30.3539 17.0971 32.5357C17.0971 35.1756 15.4056 35.6253 14.566 35.6253Z" fill="white"/>
<path d="M29.6615 28.9924C29.2769 28.9924 28.9708 28.9924 28.8633 28.9924C28.7558 28.9924 28.3091 28.9924 27.8831 28.9924C27.7756 28.9924 27.7012 28.9924 27.7012 29.0548C27.7012 29.1173 27.7012 29.1423 27.7756 29.1423C27.9294 29.1457 28.0828 29.1596 28.2347 29.1839C28.5242 29.238 28.5779 29.4421 28.5862 30.0167L28.6813 34.5968C28.396 34.297 27.3951 33.2144 26.4687 32.2484C25.0212 30.7495 23.6564 29.2922 23.5075 29.1423C23.3587 28.9924 23.2511 28.8633 23.1477 28.8633C23.0443 28.8633 23.0195 28.9591 23.0195 29.3255V34.5427C23.0195 35.3754 22.9864 35.6169 22.7507 35.6794C22.6267 35.7137 22.4988 35.7319 22.3702 35.7335C22.3603 35.7329 22.3503 35.7344 22.341 35.738C22.3317 35.7415 22.3233 35.747 22.3162 35.7541C22.3092 35.7612 22.3037 35.7697 22.3002 35.7791C22.2967 35.7884 22.2952 35.7985 22.2958 35.8085C22.2958 35.8751 22.3495 35.8834 22.4447 35.8834C22.8582 35.8834 23.2718 35.8501 23.3504 35.8501C23.429 35.8501 23.8219 35.8917 24.3388 35.8917C24.4464 35.8917 24.5084 35.8917 24.5084 35.8168C24.5084 35.7969 24.5006 35.7779 24.4866 35.7638C24.4726 35.7497 24.4537 35.7418 24.4339 35.7418C24.2768 35.7398 24.1202 35.7216 23.9666 35.6877C23.7102 35.6253 23.6275 35.4004 23.6027 34.6468L23.4993 30.3498C23.7846 30.6704 24.8393 31.7863 25.9269 32.9355C26.9154 33.9722 28.2678 35.313 28.3629 35.4004C28.884 35.8834 28.9791 35.9584 29.0742 35.9584C29.1693 35.9584 29.1528 35.9042 29.1528 35.3046V29.9667C29.1528 29.4171 29.1528 29.238 29.4795 29.1714C29.5551 29.1636 29.6314 29.1636 29.707 29.1714C29.7318 29.1717 29.7558 29.1631 29.7748 29.147C29.7938 29.131 29.8064 29.1086 29.8104 29.084C29.8311 29.0007 29.7566 28.9924 29.6615 28.9924Z" fill="white"/>
<path d="M36.6797 31.9278L36.4109 31.728C35.4886 31.0992 35.1991 30.7661 35.1991 30.1874C35.1991 29.542 35.7616 29.2006 36.4398 29.2006C37.267 29.2006 37.5895 29.542 37.6557 29.6502C37.7235 29.7923 37.7695 29.944 37.7922 30.0999C37.7922 30.1749 37.7922 30.2165 37.879 30.2165C37.9659 30.2165 37.9535 30.1541 37.9535 30.0167C37.9535 29.3921 37.9948 29.0923 37.9948 29.0507C37.9948 29.009 37.9948 28.984 37.8997 28.984C37.7881 28.9852 37.6768 28.9712 37.5689 28.9424C37.2511 28.871 36.9266 28.8347 36.6011 28.8341C35.3604 28.8341 34.5332 29.4795 34.5332 30.5496C34.5332 31.1825 34.8641 31.7405 35.8732 32.5024L36.2868 32.823C37.1139 33.4434 37.4696 33.7557 37.4696 34.4094C37.4696 35.0632 36.9899 35.6211 36.0635 35.6211C35.4348 35.6211 34.7318 35.3838 34.5829 34.7217C34.561 34.6121 34.5513 34.5004 34.5539 34.3886C34.5539 34.3137 34.5208 34.2804 34.4671 34.2804C34.4133 34.2804 34.3926 34.3345 34.3926 34.4303C34.3926 34.526 34.3389 34.9466 34.3389 35.3963C34.3389 35.6419 34.3389 35.6752 34.4795 35.7377C34.9116 35.9122 35.3747 35.9958 35.8401 35.9833C36.3561 36.0144 36.8708 35.9036 37.329 35.6627C37.5988 35.5054 37.8222 35.2787 37.9763 35.0058C38.1304 34.7328 38.2096 34.4235 38.2058 34.1096C38.214 33.3435 37.817 32.7106 36.6797 31.9278Z" fill="white"/>
<path d="M49.67 28.9924C49.3929 28.9924 48.9462 28.9924 48.88 28.9924C48.8139 28.9924 48.2845 28.9924 47.8709 28.9924C47.7634 28.9924 47.7179 28.9924 47.7179 29.0673C47.7199 29.0872 47.7289 29.1058 47.7433 29.1195C47.7578 29.1333 47.7766 29.1414 47.7965 29.1423C47.8792 29.1423 48.0405 29.1423 48.1149 29.1423C48.421 29.1839 48.4747 29.3588 48.4871 29.6461C48.4996 29.9334 48.4871 30.1915 48.4871 31.6072V32.7564C48.4871 33.6891 48.392 34.4219 47.9536 34.9632C47.7716 35.1677 47.5483 35.3307 47.2987 35.4413C47.0491 35.5519 46.7788 35.6075 46.5061 35.6044C46.2527 35.6246 45.9978 35.5914 45.7578 35.5068C45.5178 35.4222 45.298 35.2881 45.1124 35.1131C44.6988 34.7467 44.4217 34.2012 44.4217 32.8813V31.628C44.4217 30.2124 44.4217 29.9625 44.4217 29.6669C44.4217 29.3713 44.4962 29.2047 44.7402 29.1631C44.8185 29.1547 44.8976 29.1547 44.9759 29.1631C44.9962 29.1623 45.0156 29.1544 45.0308 29.1407C45.0459 29.127 45.0557 29.1084 45.0586 29.0881C45.0586 29.034 45.0049 29.0132 44.9015 29.0132C44.6244 29.0132 44.0371 29.0132 43.9544 29.0132C43.8717 29.0132 43.3051 29.0132 42.8791 29.0132C42.7716 29.0132 42.7302 29.0132 42.7302 29.0881C42.7328 29.1071 42.7414 29.1247 42.7549 29.1383C42.7683 29.1518 42.7858 29.1605 42.8047 29.1631C42.8874 29.1631 43.0487 29.1631 43.1231 29.1631C43.4292 29.2047 43.4829 29.3796 43.5036 29.6669C43.5243 29.9542 43.5284 30.2124 43.5284 31.628V32.9771C43.5284 34.3053 43.8882 34.9382 44.3556 35.3671C44.9066 35.8108 45.5986 36.0386 46.3035 36.0083C47.0163 36.0429 47.716 35.8067 48.2638 35.3463C49.0082 34.7009 49.1365 33.5975 49.1365 32.6107V31.628C49.1365 30.2124 49.1365 29.9625 49.1365 29.6669C49.1365 29.3713 49.2109 29.2172 49.4673 29.1631C49.5457 29.1547 49.6247 29.1547 49.703 29.1631C49.7225 29.1621 49.7408 29.1539 49.7546 29.14C49.7683 29.1262 49.7765 29.1077 49.7775 29.0881C49.8188 29.0132 49.7734 28.9924 49.67 28.9924Z" fill="white"/>
<path d="M58.7727 34.6093C58.7189 34.6093 58.6859 34.6634 58.6776 34.7259C58.6467 34.9139 58.5699 35.0913 58.4543 35.2422C58.2309 35.5087 57.8132 35.5212 57.3252 35.5212C56.589 35.5212 56.2292 35.4545 56.0845 35.3046C55.9397 35.1548 55.8901 34.5968 55.8901 33.2561V31.628C55.8901 30.2124 55.8901 29.9625 55.8901 29.6669C55.8901 29.3713 55.9645 29.2047 56.2416 29.1548C56.3492 29.1548 56.4856 29.1298 56.5477 29.1298C56.6097 29.1298 56.6221 29.1006 56.6221 29.0673C56.6221 29.034 56.5725 28.9924 56.4732 28.9924C56.1879 28.9924 55.4848 28.9924 55.4434 28.9924C55.4021 28.9924 54.8024 28.9924 54.3764 28.9924C54.273 28.9924 54.2275 28.9924 54.2275 29.0673C54.2307 29.086 54.2396 29.1033 54.2529 29.1167C54.2662 29.1302 54.2834 29.1391 54.302 29.1423C54.3888 29.1423 54.5501 29.1423 54.6246 29.1423C54.9306 29.1839 54.9844 29.3338 55.0051 29.6461C55.0257 29.9584 55.0257 30.1915 55.0257 31.6072V33.2144C55.0428 33.8728 55.0249 34.5316 54.972 35.1881C54.9306 35.4545 54.9099 35.6044 54.728 35.6711C54.6346 35.6951 54.5389 35.7091 54.4426 35.7127C54.4327 35.7121 54.4227 35.7136 54.4134 35.7172C54.4041 35.7207 54.3957 35.7262 54.3886 35.7333C54.3816 35.7404 54.3761 35.7489 54.3726 35.7583C54.3691 35.7676 54.3675 35.7776 54.3682 35.7876C54.3682 35.8418 54.4219 35.8626 54.517 35.8626C54.6122 35.8626 54.8686 35.8626 55.0588 35.8626C55.2491 35.8626 55.398 35.8626 55.4434 35.8626C55.7205 35.8626 56.039 35.8626 56.465 35.8876C56.8909 35.9126 57.4245 35.9167 58.0944 35.9167C58.5949 35.9167 58.6238 35.8876 58.69 35.6711C58.7598 35.3713 58.8055 35.0664 58.8265 34.7592C58.8347 34.6426 58.8141 34.6093 58.7727 34.6093Z" fill="white"/>
<path d="M67.8422 28.9257C67.8008 28.9257 67.714 28.9507 67.5775 28.9715C67.3554 29.0011 67.1315 29.015 66.9075 29.0132H63.3715C63.264 29.0132 62.9041 29.0132 62.6353 28.9715C62.4955 28.9436 62.3574 28.9074 62.2218 28.8633C62.1887 28.8633 62.139 28.9799 62.1266 29.034C62.1142 29.0881 61.924 29.9251 61.924 30.0208C61.9228 30.0389 61.9286 30.0568 61.9401 30.0708C61.9517 30.0847 61.9681 30.0937 61.986 30.0958C62.0315 30.0958 62.0646 30.0958 62.0853 30.0083C62.1232 29.9069 62.1732 29.8104 62.2342 29.721C62.3706 29.5045 62.594 29.4421 63.1812 29.4296H64.5336V33.2561C64.5336 34.1346 64.5336 34.855 64.4881 35.2297C64.4592 35.4962 64.4054 35.6794 64.2152 35.721C64.1247 35.7461 64.0318 35.7614 63.9381 35.7668C63.8843 35.7668 63.8636 35.796 63.8636 35.8293C63.8636 35.8626 63.905 35.9042 64.0125 35.9042C64.2896 35.9042 64.9389 35.8709 64.9803 35.8709C65.0216 35.8709 65.6296 35.9042 66.1383 35.9042C66.2458 35.9042 66.2872 35.8709 66.2872 35.8293C66.2872 35.7876 66.2872 35.7543 66.2127 35.7543C66.0742 35.7482 65.9361 35.7343 65.7992 35.7127C65.5138 35.6669 65.4724 35.4962 65.4393 35.2297C65.398 34.855 65.398 34.1346 65.398 33.2561V29.4087H66.5684C67.4617 29.4337 67.6644 29.6336 67.6975 29.9126V30.0125C67.6975 30.1374 67.7305 30.1707 67.7719 30.1707C67.8133 30.1707 67.8587 30.1291 67.8587 30.0541C67.8587 29.9792 67.8918 29.2922 67.8918 29.0132C67.8877 28.9799 67.8877 28.9257 67.8422 28.9257Z" fill="white"/>
<path d="M74.6911 35.7335C74.5526 35.7272 74.4146 35.7133 74.2776 35.6919C74.0005 35.6461 73.9674 35.4754 73.9343 35.2089C73.893 34.8341 73.893 34.1138 73.893 33.2353V31.628C73.893 30.2124 73.893 29.9625 73.893 29.6669C73.893 29.3713 73.9674 29.2172 74.2197 29.1631C74.298 29.1546 74.3771 29.1546 74.4554 29.1631C74.4743 29.1605 74.4917 29.1518 74.5052 29.1383C74.5186 29.1247 74.5273 29.1071 74.5299 29.0881C74.5299 29.034 74.4885 29.0132 74.381 29.0132C74.0956 29.0132 73.4877 29.0132 73.4463 29.0132C73.4049 29.0132 72.8053 29.0132 72.4951 29.0132C72.3917 29.0132 72.3462 29.0132 72.3462 29.0881C72.3472 29.1077 72.3554 29.1262 72.3691 29.14C72.3829 29.1539 72.4012 29.1621 72.4206 29.1631C72.5179 29.1661 72.6147 29.1773 72.7101 29.1964C72.9128 29.238 72.9872 29.3754 73.0079 29.6877C73.0286 30 73.0079 30.2332 73.0079 31.6489V33.2561C73.0079 34.1346 73.0079 34.855 72.9541 35.2297C72.9252 35.4962 72.8921 35.6461 72.7101 35.7127C72.6168 35.7367 72.5211 35.7507 72.4248 35.7543C72.4148 35.7537 72.4049 35.7553 72.3956 35.7588C72.3863 35.7624 72.3778 35.7679 72.3708 35.7749C72.3638 35.782 72.3583 35.7905 72.3548 35.7999C72.3512 35.8093 72.3497 35.8193 72.3503 35.8293C72.3503 35.8834 72.4 35.9042 72.4992 35.9042C72.7846 35.9042 73.3719 35.8709 73.4256 35.8709C73.4794 35.8709 74.0749 35.9042 74.596 35.9042C74.7036 35.9042 74.7449 35.8709 74.7449 35.8293C74.7488 35.8195 74.7504 35.8089 74.7496 35.7984C74.7489 35.7879 74.7459 35.7777 74.7407 35.7685C74.7356 35.7593 74.7284 35.7514 74.7199 35.7454C74.7113 35.7393 74.7015 35.7353 74.6911 35.7335Z" fill="white"/>
<path d="M86.6062 28.9924C86.2216 28.9924 85.9114 28.9924 85.808 28.9924C85.7046 28.9924 85.2538 28.9924 84.8278 28.9924C84.7203 28.9924 84.6459 28.9924 84.6459 29.0548C84.6459 29.1173 84.6459 29.1423 84.7203 29.1423C84.8741 29.1459 85.0274 29.1598 85.1794 29.1839C85.4647 29.238 85.5185 29.4421 85.5309 30.0167L85.626 34.5968C85.3365 34.297 84.3357 33.2144 83.4093 32.2484C81.9618 30.7495 80.6011 29.2922 80.4522 29.1423C80.3033 28.9924 80.1958 28.8633 80.0883 28.8633C79.9808 28.8633 79.9601 28.9591 79.9601 29.3255V34.5427C79.9601 35.3754 79.9311 35.6169 79.6954 35.6794C79.5699 35.7135 79.4407 35.7317 79.3108 35.7335C79.301 35.7335 79.2913 35.7355 79.2823 35.7392C79.2733 35.743 79.265 35.7485 79.2581 35.7555C79.2512 35.7624 79.2457 35.7707 79.242 35.7798C79.2383 35.7889 79.2363 35.7986 79.2363 35.8085C79.2363 35.8751 79.2901 35.8834 79.3852 35.8834C79.7988 35.8834 80.2124 35.8501 80.2909 35.8501C80.3695 35.8501 80.75 35.8834 81.2794 35.8834C81.3869 35.8834 81.4531 35.8834 81.4531 35.8085C81.4531 35.7886 81.4452 35.7695 81.4313 35.7555C81.4173 35.7414 81.3984 35.7335 81.3786 35.7335C81.2201 35.7315 81.0621 35.7134 80.9072 35.6794C80.6549 35.6169 80.568 35.3921 80.5474 34.6384L80.4398 30.3414C80.7293 30.662 81.7798 31.7779 82.8675 32.9271C83.8559 33.9639 85.2083 35.3047 85.3034 35.3921C85.8287 35.8751 85.9238 35.95 86.0189 35.95C86.114 35.95 86.0934 35.8959 86.0934 35.2963L86.114 29.9584C86.114 29.4087 86.114 29.2297 86.4449 29.1631C86.5191 29.1555 86.594 29.1555 86.6682 29.1631C86.6935 29.1636 86.7181 29.155 86.7378 29.1391C86.7574 29.1231 86.7709 29.1006 86.7757 29.0756C86.7757 29.0007 86.6848 28.9924 86.6062 28.9924Z" fill="white"/>
<path d="M97.8512 32.465C97.5658 32.465 96.9785 32.465 96.9372 32.465C96.8958 32.465 96.2548 32.465 95.8288 32.465C95.7213 32.465 95.6799 32.465 95.6799 32.5399C95.6825 32.5589 95.6911 32.5765 95.7046 32.59C95.718 32.6036 95.7355 32.6123 95.7544 32.6149C95.8412 32.6149 95.9984 32.6149 96.0728 32.6357C96.4574 32.7106 96.4864 32.8189 96.4864 33.5559V35.1339C96.4864 35.3047 96.4119 35.3463 96.2961 35.4129C95.9747 35.5432 95.6289 35.6015 95.2829 35.5836C94.8419 35.5932 94.4033 35.515 93.9924 35.3536C93.5815 35.1921 93.2063 34.9505 92.8883 34.6426C92.253 33.9682 91.8992 33.0739 91.8999 32.1443C91.8709 31.7162 91.9393 31.287 92.0999 30.8895C92.2604 30.4919 92.5088 30.1365 92.8263 29.8501C93.3812 29.4188 94.0697 29.199 94.7701 29.2297C95.986 29.2297 96.6973 29.592 96.933 29.9334C97.0512 30.1143 97.1236 30.3216 97.144 30.5371C97.144 30.6204 97.144 30.6745 97.2101 30.6745C97.2763 30.6745 97.3177 30.6329 97.3177 30.483C97.3177 29.5711 97.3673 29.3255 97.3673 29.1964C97.3673 29.1548 97.3466 29.109 97.2515 29.109C96.9969 29.0999 96.7436 29.0679 96.4947 29.0132C96.0219 28.919 95.5415 28.8688 95.0596 28.8633C94.1952 28.8216 93.3363 29.0219 92.5781 29.4421C92.081 29.7599 91.6749 30.2029 91.4 30.7273C91.1251 31.2516 90.9909 31.8391 91.0107 32.4316C91.0065 32.9186 91.1037 33.401 91.296 33.8478C91.4883 34.2946 91.7715 34.6958 92.1273 35.0257C92.8577 35.5435 93.7062 35.8673 94.594 35.967C95.4818 36.0667 96.3802 35.9391 97.206 35.5961C97.3259 35.5295 97.3342 35.5212 97.3342 35.1006V34.0847C97.3342 33.6974 97.3342 33.431 97.3342 33.1395C97.3342 32.848 97.4293 32.6773 97.6857 32.6357C97.7619 32.6201 97.8396 32.6131 97.9173 32.6149C97.9362 32.6123 97.9537 32.6036 97.9671 32.59C97.9806 32.5765 97.9892 32.5589 97.9918 32.5399C97.9959 32.4774 97.9546 32.465 97.8512 32.465Z" fill="white"/>
</g>
<defs>
<clipPath id="clip0">
<rect width="98" height="36" fill="white"/>
</clipPath>
</defs>
</svg>
