<svg width="23" height="23" viewBox="0 0 23 23" fill="none" xmlns="http://www.w3.org/2000/svg">
<g clip-path="url(#clip0)">
<path d="M16.6376 16H6.36245C5.62445 16 5 15.4036 5 14.6988V8.3012C5 7.59639 5.62445 7 6.36245 7H16.6943C17.4323 7 18.0568 7.59639 18.0568 8.3012V14.753C18 15.4036 17.3755 16 16.6376 16ZM6.36245 8.08434C6.24891 8.08434 6.13537 8.19277 6.13537 8.3012V14.753C6.13537 14.8614 6.24891 14.9699 6.36245 14.9699H16.6943C16.8079 14.9699 16.9214 14.8614 16.9214 14.753V8.3012C16.9214 8.19277 16.8079 8.08434 16.6943 8.08434H6.36245Z" fill="#275286"/>
<path d="M16.6377 15.7289H6.3626C5.90845 15.7289 5.51107 15.4578 5.39754 15.0783C5.34077 14.9698 5.39754 14.8614 5.45431 14.753L9.42811 11.3373C9.54164 11.2289 9.71195 11.2289 9.82549 11.3373C9.93902 11.4457 9.93902 11.6084 9.82549 11.7168L5.96522 14.9698C6.07876 15.0783 6.1923 15.1325 6.30583 15.1325H16.6377C16.7512 15.1325 16.9216 15.0783 16.9783 14.9698L13.0613 11.6626C12.9478 11.5542 12.9478 11.3915 13.0613 11.2831C13.1748 11.1747 13.3451 11.1747 13.4587 11.2831L17.546 14.753C17.6595 14.8072 17.6595 14.9698 17.6028 15.0241C17.4892 15.4578 17.0919 15.7289 16.6377 15.7289Z" fill="#275286"/>
<path d="M11.4718 13.2891C11.4151 13.2891 11.3583 13.2891 11.3015 13.2349L5.45436 8.24695C5.34082 8.13851 5.34082 8.03008 5.34082 7.92164C5.51113 7.54213 5.90851 7.27104 6.30589 7.27104H16.6378C17.0919 7.27104 17.4893 7.54213 17.6028 7.92164C17.6596 8.03008 17.6028 8.13851 17.5461 8.19273L11.6989 13.1807C11.6421 13.2891 11.5854 13.2891 11.4718 13.2891ZM5.96527 7.97586L11.4718 12.6927L16.9784 7.97586C16.8648 7.86743 16.7513 7.81321 16.6378 7.81321H6.36265C6.19235 7.81321 6.07881 7.86743 5.96527 7.97586Z" fill="#275286"/>
</g>
<circle cx="11.5" cy="11.5" r="11" stroke="#275286"/>
<defs>
<clipPath id="clip0">
<rect width="13" height="9" fill="white" transform="translate(5 7)"/>
</clipPath>
</defs>
</svg>
