<svg width="23" height="23" viewBox="0 0 23 23" fill="none" xmlns="http://www.w3.org/2000/svg">
<circle cx="11.5" cy="11.5" r="11" stroke="#275286"/>
<g clip-path="url(#clip0)">
<path d="M14.6765 17C12.5428 17 10.3618 16.0043 8.70233 14.3448L8.65491 14.2974C6.9006 12.5431 5.95233 10.3147 5.99974 8.18103V8.03879L6.09457 7.89655C6.23681 7.7069 6.37905 7.51724 6.56871 7.375C7.13767 6.80603 7.80147 6.37931 8.56009 6.04741C8.65491 6 8.74974 6 8.89198 6C9.12905 6 9.74543 6.14224 9.88767 6.52155C10.1247 7.23276 10.4566 8.18103 10.6937 9.0819C10.7411 9.31897 10.6937 9.93534 10.3144 10.1724L9.50836 10.694C9.50836 10.694 9.50836 10.8362 9.60319 10.9784C9.93509 11.4052 10.3144 11.8793 10.7411 12.306C11.1678 12.7328 11.5946 13.1121 12.0213 13.3966C12.1161 13.444 12.2109 13.4914 12.3058 13.4914L12.5903 13.0647L12.8747 12.6379C13.1118 12.2586 13.6808 12.2586 13.7756 12.2586C13.823 12.2586 13.9178 12.2586 13.9653 12.2586C15.0558 12.4957 15.7196 12.7328 16.573 13.1121C16.9523 13.3017 17.1894 13.9655 16.9997 14.3922C16.7153 15.1509 16.2885 15.8147 15.6722 16.3836C15.5299 16.5259 15.3403 16.7155 15.1506 16.8578L15.0084 17H14.6765ZM6.94802 8.37069C6.94802 10.2198 7.84888 12.1638 9.31871 13.681L9.36612 13.7284C10.8834 15.2457 12.7799 16.0991 14.6291 16.0991C14.7239 16.0043 14.8661 15.9095 14.9609 15.8147C15.4351 15.3405 15.8144 14.7716 16.0515 14.1552C16.0515 14.1552 16.0041 14.1078 16.0041 14.0603C15.2928 13.7284 14.6765 13.5388 13.6808 13.3017C13.6334 13.3017 13.5859 13.3017 13.5859 13.3017L13.1118 14.0603C12.8273 14.5345 12.0213 14.6293 11.4523 14.2026C10.9782 13.8707 10.5041 13.444 10.0299 13.0172C9.55578 12.5431 9.17647 12.069 8.79716 11.5948C8.6075 11.2155 8.51267 10.8362 8.56009 10.5043C8.6075 10.2198 8.74974 10.0302 8.98681 9.88793L9.74543 9.41379C9.74543 9.36638 9.74543 9.31897 9.74543 9.27155C9.55578 8.51293 9.27129 7.65948 8.98681 6.99569C8.98681 6.94828 8.9394 6.94828 8.89198 6.94828C8.2756 7.18534 7.70664 7.56466 7.2325 8.03879C7.13767 8.13362 7.04285 8.22845 6.94802 8.37069Z" fill="#275286"/>
</g>
<defs>
<clipPath id="clip0">
<rect width="11" height="11" fill="white" transform="translate(6 6)"/>
</clipPath>
</defs>
</svg>
