<svg width="23" height="23" viewBox="0 0 23 23" fill="none" xmlns="http://www.w3.org/2000/svg">
<circle cx="11.5" cy="11.5" r="11" stroke="#275286"/>
<g clip-path="url(#clip0)">
<path d="M14.6755 17C12.5419 17 10.3608 16.0043 8.70135 14.3448L8.65394 14.2974C6.89963 12.5431 5.95135 10.3147 5.99877 8.18103V8.03879L6.09359 7.89655C6.23584 7.7069 6.37808 7.51724 6.56773 7.375C7.1367 6.80603 7.80049 6.37931 8.55911 6.04741C8.65394 6 8.74877 6 8.89101 6C9.12808 6 9.74446 6.14224 9.8867 6.52155C10.1238 7.23276 10.4557 8.18103 10.6927 9.0819C10.7401 9.31897 10.6927 9.93534 10.3134 10.1724L9.50739 10.694C9.50739 10.694 9.50739 10.8362 9.60221 10.9784C9.93411 11.4052 10.3134 11.8793 10.7401 12.306C11.1669 12.7328 11.5936 13.1121 12.0203 13.3966C12.1151 13.444 12.21 13.4914 12.3048 13.4914L12.5893 13.0647L12.8738 12.6379C13.1108 12.2586 13.6798 12.2586 13.7746 12.2586C13.822 12.2586 13.9169 12.2586 13.9643 12.2586C15.0548 12.4957 15.7186 12.7328 16.572 13.1121C16.9513 13.3017 17.1884 13.9655 16.9988 14.3922C16.7143 15.1509 16.2876 15.8147 15.6712 16.3836C15.5289 16.5259 15.3393 16.7155 15.1496 16.8578L15.0074 17H14.6755ZM6.94704 8.37069C6.94704 10.2198 7.8479 12.1638 9.31773 13.681L9.36514 13.7284C10.8824 15.2457 12.7789 16.0991 14.6281 16.0991C14.7229 16.0043 14.8651 15.9095 14.96 15.8147C15.4341 15.3405 15.8134 14.7716 16.0505 14.1552C16.0505 14.1552 16.0031 14.1078 16.0031 14.0603C15.2919 13.7284 14.6755 13.5388 13.6798 13.3017C13.6324 13.3017 13.585 13.3017 13.585 13.3017L13.1108 14.0603C12.8264 14.5345 12.0203 14.6293 11.4514 14.2026C10.9772 13.8707 10.5031 13.444 10.0289 13.0172C9.5548 12.5431 9.17549 12.069 8.79618 11.5948C8.60652 11.2155 8.5117 10.8362 8.55911 10.5043C8.60652 10.2198 8.74877 10.0302 8.98583 9.88793L9.74445 9.41379C9.74445 9.36638 9.74445 9.31897 9.74445 9.27155C9.5548 8.51293 9.27032 7.65948 8.98583 6.99569C8.98583 6.94828 8.93842 6.94828 8.89101 6.94828C8.27463 7.18534 7.70566 7.56466 7.23152 8.03879C7.1367 8.13362 7.04187 8.22845 6.94704 8.37069Z" fill="#275286"/>
</g>
<defs>
<clipPath id="clip0">
<rect width="11" height="11" fill="white" transform="translate(6 6)"/>
</clipPath>
</defs>
</svg>
