<svg width="12" height="12" viewBox="0 0 12 12" fill="none" xmlns="http://www.w3.org/2000/svg">
<g clip-path="url(#clip0)">
<path d="M5.925 0C3.45 0 1.75 0 0.875 0.875C0 1.75 0 3.55 0 5.925C2.65 5.85 3.875 5.775 4.85 4.825C5.775 3.875 5.85 2.65 5.925 0ZM0.875 11.125C0 10.25 0 8.45 0 6.075C2.65 6.15 3.875 6.225 4.85 7.175C5.8 8.15 5.875 9.35 5.95 12.025C3.45 12 1.75 12 0.875 11.125ZM6.075 12C6.15 9.35 6.225 8.125 7.175 7.15C8.15 6.2 9.35 6.125 12.025 6.05C12.025 8.45 12.025 10.225 11.15 11.125C10.25 12 8.55 12 6.075 12ZM6.075 0C6.15 2.65 6.225 3.875 7.175 4.85C8.15 5.8 9.35 5.875 12.025 5.95C12.025 3.55 12.025 1.775 11.15 0.875C10.25 0 8.55 0 6.075 0Z" fill="#275286"/>
</g>
<defs>
<clipPath id="clip0">
<rect width="12" height="12" fill="white"/>
</clipPath>
</defs>
</svg>
