<svg width="14" height="14" viewBox="0 0 14 14" fill="none" xmlns="http://www.w3.org/2000/svg">
<path fill-rule="evenodd" clip-rule="evenodd" d="M3.94586 7.00004C3.94586 5.30307 5.32767 3.92125 7.02464 3.92125C8.72161 3.92125 10.1034 5.30307 10.1034 7.00004C10.1034 8.69701 8.72161 10.0788 7.02464 10.0788C5.30343 10.0788 3.94586 8.69701 3.94586 7.00004ZM10.1762 0.987915H3.82465C2.27313 0.987915 0.988281 2.27276 0.988281 3.82428V10.1758C0.988281 11.7273 2.27313 13.0122 3.82465 13.0122H10.1762C11.7519 13.0122 13.0125 11.7273 13.0125 10.1758V3.82428C13.0368 2.27276 11.7519 0.987915 10.1762 0.987915ZM3.82465 1.69095H10.1762C11.364 1.69095 12.3095 2.6364 12.3095 3.82428V10.1758C12.3095 11.3637 11.364 12.3091 10.1762 12.3091H3.82465C2.63677 12.3091 1.69131 11.3637 1.69131 10.1758V3.82428C1.69131 2.66064 2.66101 1.69095 3.82465 1.69095ZM10.8065 2.58792C10.4671 2.58792 10.1762 2.87882 10.1762 3.21822C10.1762 3.55761 10.4671 3.84852 10.8065 3.84852C11.1459 3.84852 11.4368 3.55761 11.4368 3.21822C11.4368 2.87882 11.1701 2.58792 10.8065 2.58792ZM10.8792 7.00004C10.8792 4.8667 9.13374 3.12125 7.0004 3.12125C4.86707 3.12125 3.12161 4.8667 3.12161 7.00004C3.12161 9.15761 4.86707 10.8788 7.0004 10.8788C9.15798 10.8788 10.8792 9.15761 10.8792 7.00004Z" fill="#275286"/>
</svg>
