<svg width="13" height="9" viewBox="0 0 13 9" fill="none" xmlns="http://www.w3.org/2000/svg">
<g clip-path="url(#clip0)">
<path d="M11.6376 9H1.36245C0.624454 9 0 8.40361 0 7.6988V1.3012C0 0.596386 0.624454 0 1.36245 0H11.6943C12.4323 0 13.0568 0.596386 13.0568 1.3012V7.75301C13 8.40361 12.3755 9 11.6376 9ZM1.36245 1.08434C1.24891 1.08434 1.13537 1.19277 1.13537 1.3012V7.75301C1.13537 7.86145 1.24891 7.96988 1.36245 7.96988H11.6943C11.8079 7.96988 11.9214 7.86145 11.9214 7.75301V1.3012C11.9214 1.19277 11.8079 1.08434 11.6943 1.08434H1.36245Z" fill="#275286"/>
<path d="M11.6367 8.72889H1.36163C0.907478 8.72889 0.510098 8.45781 0.396561 8.07829C0.339793 7.96985 0.396561 7.86142 0.45333 7.75299L4.42713 4.33732C4.54067 4.22889 4.71097 4.22889 4.82451 4.33732C4.93805 4.44576 4.93805 4.60841 4.82451 4.71684L0.964247 7.96985C1.07778 8.07829 1.19132 8.1325 1.30486 8.1325H11.6367C11.7503 8.1325 11.9206 8.07829 11.9773 7.96985L8.06032 4.66263C7.94678 4.55419 7.94678 4.39154 8.06032 4.28311C8.17385 4.17467 8.34416 4.17467 8.4577 4.28311L12.545 7.75299C12.6586 7.8072 12.6586 7.96985 12.6018 8.02407C12.4883 8.45781 12.0909 8.72889 11.6367 8.72889Z" fill="#275286"/>
<path d="M6.47085 6.28907C6.41408 6.28907 6.35731 6.28907 6.30054 6.23485L0.453381 1.2469C0.339844 1.13847 0.339844 1.03003 0.339844 0.921598C0.510149 0.54208 0.907529 0.270996 1.30491 0.270996H11.6368C12.0909 0.270996 12.4883 0.54208 12.6019 0.921598C12.6586 1.03003 12.6019 1.13847 12.5451 1.19268L6.69792 6.18063C6.64115 6.28907 6.58438 6.28907 6.47085 6.28907ZM0.964298 0.975815L6.47085 5.69268L11.9774 0.975815C11.8639 0.867382 11.7503 0.813165 11.6368 0.813165H1.36168C1.19137 0.813165 1.07784 0.867382 0.964298 0.975815Z" fill="#275286"/>
</g>
<defs>
<clipPath id="clip0">
<rect width="13" height="9" fill="white"/>
</clipPath>
</defs>
</svg>
